<svg version="1.1" id="Layer_1" xmlns="http://www.w3.org/2000/svg" xmlns:xlink="http://www.w3.org/1999/xlink" x="0px" y="0px"
	 width="100%" viewBox="0 0 284 246" enable-background="new 0 0 284 246" xml:space="preserve">
<path fill="#000000" opacity="1.000000" stroke="none" 
	d="
M194.000000,247.000000 
	C129.333344,247.000000 65.166679,247.000000 1.000017,247.000000 
	C1.000011,165.000015 1.000011,83.000038 1.000006,1.000039 
	C95.666634,1.000026 190.333267,1.000026 284.999939,1.000013 
	C284.999939,82.999962 284.999939,164.999924 284.999969,246.999939 
	C254.833328,247.000000 224.666672,247.000000 194.000000,247.000000 
M78.814827,206.002029 
	C81.973190,208.842911 85.131241,211.684464 89.991142,211.913559 
	C94.344254,212.588699 98.685089,213.707489 103.053543,213.828400 
	C108.706329,213.984848 114.381157,213.345047 120.931427,213.015610 
	C125.909340,213.286942 130.887253,213.558273 136.806671,213.983612 
	C143.193008,213.604507 149.579346,213.225403 156.815994,213.006226 
	C161.537445,213.289780 166.258896,213.573334 171.887619,213.997452 
	C175.612549,213.690887 179.337494,213.384308 183.895172,213.003204 
	C187.613693,212.294113 191.332214,211.585007 195.859329,211.012436 
	C206.527817,209.545654 218.634476,198.659744 219.881332,188.728271 
	C220.698914,182.216232 220.566711,175.584961 221.001083,168.078247 
	C220.996490,141.766861 220.939911,115.455322 221.017685,89.144180 
	C221.042389,80.789024 217.115479,73.954407 211.897568,68.309433 
	C204.074524,59.846127 193.415359,57.355598 181.356003,57.161842 
	C180.824341,57.216309 180.292694,57.270775 178.933548,57.189270 
	C176.654602,57.216400 174.375656,57.243530 171.208923,57.127365 
	C169.113464,57.172657 167.017990,57.217945 164.504272,57.142132 
	C164.504272,57.142132 164.078568,57.233662 163.166199,57.111279 
	C160.086212,57.148678 157.006241,57.186081 153.007492,57.087006 
	C134.324585,57.413326 115.614975,57.237698 96.967545,58.230385 
	C82.937988,58.977242 73.115417,66.640549 67.781746,80.739021 
	C64.423836,89.905548 64.830681,99.424110 65.043686,109.883125 
	C65.084015,118.598961 65.124352,127.314789 65.018532,136.952881 
	C65.013382,141.895187 65.018898,146.837524 64.998909,151.779770 
	C64.987770,154.533615 64.934196,157.287292 64.675224,160.819626 
	C64.517860,163.549103 64.360497,166.278564 64.063957,169.929291 
	C64.058678,171.919846 63.760822,173.963028 64.107552,175.890244 
	C64.887703,180.226578 65.987343,184.505447 67.617195,189.158371 
	C68.135109,190.759720 68.653023,192.361053 69.199043,194.662552 
	C72.165237,198.388489 75.131432,202.114426 78.814827,206.002029 
z"/>
<path fill="#924088" opacity="1.000000" stroke="none" 
	d="
M182.153275,57.299095 
	C193.415359,57.355598 204.074524,59.846127 211.897568,68.309433 
	C217.115479,73.954407 221.042389,80.789024 221.017685,89.144180 
	C220.939911,115.455322 220.996490,141.766861 220.616180,168.530792 
	C219.811981,168.974518 219.392715,168.965698 218.984467,168.502502 
	C218.385513,162.705551 217.775528,157.362930 217.311279,151.635773 
	C217.623718,147.164780 217.790405,143.078339 217.981537,138.527100 
	C217.990387,133.372009 217.974792,128.681717 217.979324,123.523659 
	C217.931107,111.037659 217.862747,99.019417 217.834076,86.619507 
	C216.589447,83.146530 215.305115,80.055237 213.848816,76.673340 
	C211.139542,73.890205 208.602219,71.397675 205.944244,68.714890 
	C205.637314,68.284050 205.410263,68.091568 205.045837,67.599426 
	C201.971710,65.840530 198.994171,64.429420 195.737762,62.774708 
	C191.341217,61.691708 187.223557,60.852306 183.065216,59.725071 
	C182.734100,58.724522 182.443680,58.011810 182.153275,57.299095 
z"/>
<path fill="#40448C" opacity="1.000000" stroke="none" 
	d="
M68.127495,80.029655 
	C73.115417,66.640549 82.937988,58.977242 96.967545,58.230385 
	C115.614975,57.237698 134.324585,57.413326 153.237991,57.451309 
	C149.976364,58.209469 146.462906,58.475071 143.001007,59.050694 
	C141.240997,59.343338 139.573776,60.194046 137.554413,60.818504 
	C136.827820,60.862774 136.411407,60.881023 135.535919,60.880348 
	C128.701416,60.857574 122.325996,60.853725 115.513680,60.858833 
	C112.737076,60.877769 110.397377,60.887741 107.737747,60.685867 
	C104.159348,60.655975 100.883598,60.684010 97.645485,61.047462 
	C85.833237,62.373276 76.892433,67.926689 71.480179,79.034554 
	C70.153709,79.405617 69.140602,79.717636 68.127495,80.029655 
z"/>
<path fill="#FCD35D" opacity="1.000000" stroke="none" 
	d="
M135.865158,213.829620 
	C130.887253,213.558273 125.909340,213.286942 120.339165,212.663666 
	C118.095009,211.880585 116.453285,211.128983 114.789375,211.076141 
	C108.897820,210.889069 102.998672,210.940781 97.026466,210.628265 
	C96.625977,209.896240 96.301422,209.437958 96.069244,208.650421 
	C101.703629,202.581543 113.890541,200.379410 117.890892,205.422775 
	C121.429977,209.884583 125.327110,210.164780 130.333176,210.156784 
	C132.443359,210.531647 134.204193,210.753387 136.158005,211.160538 
	C136.189026,212.173843 136.027084,213.001724 135.865158,213.829620 
z"/>
<path fill="#BE5169" opacity="1.000000" stroke="none" 
	d="
M218.973434,168.956863 
	C219.392715,168.965698 219.811981,168.974518 220.545563,168.995209 
	C220.566711,175.584961 220.698914,182.216232 219.881332,188.728271 
	C218.634476,198.659744 206.527817,209.545654 195.666595,210.736969 
	C196.322159,209.645172 197.170456,208.828827 198.141907,207.760620 
	C198.522720,207.010681 198.780365,206.512619 199.427078,206.013824 
	C203.817459,206.007980 205.958267,204.079544 206.339966,199.934204 
	C207.772934,199.244873 208.891037,198.628372 210.353455,197.946838 
	C212.804779,193.931290 214.911835,189.980789 217.212280,185.756546 
	C217.599426,181.330109 217.793152,177.177429 217.998566,172.663391 
	C218.331314,171.186981 218.652374,170.071915 218.973434,168.956863 
z"/>
<path fill="#5F3EAC" opacity="1.000000" stroke="none" 
	d="
M137.864609,60.792480 
	C139.573776,60.194046 141.240997,59.343338 143.001007,59.050694 
	C146.462906,58.475071 149.976364,58.209469 153.697372,57.519547 
	C157.006241,57.186081 160.086212,57.148678 163.705231,57.275391 
	C164.244247,57.439499 164.618118,57.496643 164.618118,57.496643 
	C164.618118,57.496643 164.922531,57.263237 164.922531,57.263237 
	C167.017990,57.217945 169.113464,57.172657 171.970978,57.370239 
	C175.075699,57.517155 177.418365,57.421196 179.761032,57.325237 
	C180.292694,57.270775 180.824341,57.216309 181.754639,57.230469 
	C182.443680,58.011810 182.734100,58.724522 182.729034,59.854370 
	C181.279434,60.500343 180.125351,60.729179 178.594055,60.799904 
	C173.471680,60.758316 168.726501,60.874840 163.517883,60.985294 
	C158.703217,60.986755 154.352020,60.994282 149.539276,60.996033 
	C145.340012,60.924328 141.602310,60.858406 137.864609,60.792480 
z"/>
<path fill="#5E4293" opacity="1.000000" stroke="none" 
	d="
M67.954620,80.384338 
	C69.140602,79.717636 70.153709,79.405617 71.655365,79.235825 
	C72.413200,79.602509 72.682503,79.826981 72.938156,80.273987 
	C72.924515,80.496513 72.920174,80.942390 72.648972,81.110306 
	C71.899582,82.185898 71.421402,83.093567 70.703438,84.273407 
	C69.980110,87.025948 69.496567,89.506310 69.000519,92.239716 
	C68.987572,92.661644 68.987129,92.830544 68.905777,93.387421 
	C68.555756,96.170341 68.286644,98.565285 67.794617,101.199829 
	C67.428719,102.276283 67.285728,103.113113 67.051628,104.307404 
	C66.652367,106.089851 66.344208,107.514854 65.813385,108.935959 
	C65.590706,108.932053 65.145294,108.934052 65.145294,108.934052 
	C64.830681,99.424110 64.423836,89.905548 67.954620,80.384338 
z"/>
<path fill="#F7E188" opacity="1.000000" stroke="none" 
	d="
M97.102402,210.901993 
	C102.998672,210.940781 108.897820,210.889069 114.789375,211.076141 
	C116.453285,211.128983 118.095009,211.880585 119.896698,212.679901 
	C114.381157,213.345047 108.706329,213.984848 103.053543,213.828400 
	C98.685089,213.707489 94.344254,212.588699 90.162613,211.290497 
	C90.565010,210.129272 90.795921,209.591095 91.396797,209.046646 
	C92.507729,209.032562 93.248703,209.024750 93.980179,209.039673 
	C93.970680,209.062393 93.970398,209.111664 94.079796,209.423706 
	C95.160263,210.124512 96.131332,210.513245 97.102402,210.901993 
z"/>
<path fill="#DD665F" opacity="1.000000" stroke="none" 
	d="
M64.899750,160.041046 
	C64.934196,157.287292 64.987770,154.533615 64.998909,151.779770 
	C65.018898,146.837524 65.013382,141.895187 65.326218,136.600708 
	C66.094620,136.481628 66.555328,136.714722 67.259628,136.965942 
	C67.503212,136.984100 67.991325,137.012360 67.989517,137.472183 
	C67.990082,141.619095 67.992462,145.306183 67.764793,149.306396 
	C67.393600,151.743530 67.252464,153.867554 67.082581,156.393829 
	C67.035599,157.873001 67.017342,158.949951 66.649124,160.024231 
	C65.832695,160.028061 65.366219,160.034561 64.899750,160.041046 
z"/>
<path fill="#F6AB63" opacity="1.000000" stroke="none" 
	d="
M136.335907,213.906616 
	C136.027084,213.001724 136.189026,212.173843 136.174988,210.918243 
	C135.999023,210.490555 136.018021,210.004639 136.433273,210.005951 
	C138.234787,210.004837 139.621063,210.002411 141.423401,210.002106 
	C143.227631,210.006226 144.615768,210.008240 146.395386,210.081329 
	C149.197922,210.419708 151.608978,210.687012 154.273682,210.964294 
	C154.696518,210.978104 154.865707,210.981949 155.141190,211.223221 
	C155.486877,211.922516 155.726288,212.384415 155.965683,212.846298 
	C149.579346,213.225403 143.193008,213.604507 136.335907,213.906616 
z"/>
<path fill="#B14A65" opacity="1.000000" stroke="none" 
	d="
M67.016045,136.947800 
	C66.555328,136.714722 66.094620,136.481628 65.399292,136.139587 
	C65.124352,127.314789 65.084015,118.598961 65.094490,109.408585 
	C65.145294,108.934052 65.590706,108.932053 65.809029,109.308762 
	C66.359673,110.823914 66.691994,111.962357 67.006485,113.517899 
	C67.329292,116.298042 67.669930,118.661079 68.006439,121.422981 
	C68.028679,122.886665 68.055046,123.951477 68.055710,125.411819 
	C68.043312,126.862999 68.056610,127.918671 67.984337,129.364822 
	C67.604523,132.152802 67.310280,134.550308 67.016045,136.947800 
z"/>
<path fill="#D99868" opacity="1.000000" stroke="none" 
	d="
M66.956947,188.807693 
	C65.987343,184.505447 64.887703,180.226578 64.107552,175.890244 
	C63.760822,173.963028 64.058678,171.919846 64.421043,169.558167 
	C65.216087,169.815674 65.654045,170.444290 66.095627,171.469772 
	C66.416664,174.571472 66.734070,177.276321 67.031982,180.396820 
	C67.023247,182.196808 67.034004,183.581131 67.034233,185.349670 
	C67.001457,186.758484 66.979202,187.783096 66.956947,188.807693 
z"/>
<path fill="#D05C57" opacity="1.000000" stroke="none" 
	d="
M198.018738,208.012482 
	C197.170456,208.828827 196.322159,209.645172 195.262299,210.668701 
	C191.332214,211.585007 187.613693,212.294113 183.420090,212.735687 
	C182.626663,211.948563 182.308319,211.428986 182.043854,210.636169 
	C182.409576,209.909393 182.721420,209.455841 183.469421,209.010117 
	C185.946823,209.010971 187.988068,209.003998 190.438446,209.005585 
	C193.237961,208.680252 195.628357,208.346359 198.018738,208.012482 
z"/>
<path fill="#EF8C50" opacity="1.000000" stroke="none" 
	d="
M156.390839,212.926270 
	C155.726288,212.384415 155.486877,211.922516 155.557922,211.224136 
	C157.265244,210.954987 158.662109,210.922333 160.491226,210.912735 
	C162.964447,210.913712 165.005447,210.891602 167.441925,210.887573 
	C168.893082,210.933105 169.948730,210.960587 171.004578,211.346680 
	C170.996628,212.422485 170.988480,213.139694 170.980347,213.856888 
	C166.258896,213.573334 161.537445,213.289780 156.390839,212.926270 
z"/>
<path fill="#EAB26A" opacity="1.000000" stroke="none" 
	d="
M78.097626,205.840363 
	C75.131432,202.114426 72.165237,198.388489 69.533646,194.335571 
	C71.571983,195.019653 73.275719,196.030731 75.031754,197.320862 
	C75.390778,198.064529 75.697495,198.529160 76.150200,199.299866 
	C77.505264,200.433075 78.714340,201.260193 79.904739,202.347260 
	C79.862633,202.779358 79.839211,202.951508 79.523956,203.202667 
	C78.853958,204.134567 78.475792,204.987457 78.097626,205.840363 
z"/>
<path fill="#F5D67A" opacity="1.000000" stroke="none" 
	d="
M78.456223,205.921204 
	C78.475792,204.987457 78.853958,204.134567 79.661972,203.518341 
	C82.571838,207.086136 85.831528,208.583710 90.131226,208.175232 
	C90.523056,208.608185 90.774948,208.830551 91.026840,209.052917 
	C90.795921,209.591095 90.565010,210.129272 90.105026,210.857635 
	C85.131241,211.684464 81.973190,208.842911 78.456223,205.921204 
z"/>
<path fill="#E67F54" opacity="1.000000" stroke="none" 
	d="
M171.433975,213.927170 
	C170.988480,213.139694 170.996628,212.422485 171.434204,211.343689 
	C173.584717,210.946732 175.305817,210.911377 177.440277,210.892212 
	C179.232437,210.908752 180.611206,210.909073 181.989975,210.909393 
	C182.308319,211.428986 182.626663,211.948563 183.003723,212.772949 
	C179.337494,213.384308 175.612549,213.690887 171.433975,213.927170 
z"/>
<path fill="#EB9E54" opacity="1.000000" stroke="none" 
	d="
M74.979446,197.041809 
	C73.275719,196.030731 71.571983,195.019653 69.519592,193.985489 
	C68.653023,192.361053 68.135109,190.759720 67.287071,188.983032 
	C66.979202,187.783096 67.001457,186.758484 67.335114,185.440338 
	C68.433800,186.099564 69.221077,187.052353 70.149307,188.306854 
	C71.860870,190.740631 73.431488,192.872681 75.000778,195.343994 
	C74.992783,196.136124 74.986115,196.588974 74.979446,197.041809 
z"/>
<path fill="#E67F54" opacity="1.000000" stroke="none" 
	d="
M66.092003,171.072922 
	C65.654045,170.444290 65.216087,169.815674 64.490631,169.097534 
	C64.360497,166.278564 64.517860,163.549103 64.787491,160.430328 
	C65.366219,160.034561 65.832695,160.028061 66.651703,160.479370 
	C67.036308,164.292435 67.068382,167.647720 66.847672,171.019272 
	C66.427261,171.048004 66.259628,171.060455 66.092003,171.072922 
z"/>
<path fill="#924088" opacity="1.000000" stroke="none" 
	d="
M179.347290,57.257256 
	C177.418365,57.421196 175.075699,57.517155 172.414871,57.441887 
	C174.375656,57.243530 176.654602,57.216400 179.347290,57.257256 
z"/>
<path fill="#40448C" opacity="1.000000" stroke="none" 
	d="
M164.713409,57.202682 
	C164.922531,57.263237 164.618118,57.496643 164.618118,57.496643 
	C164.618118,57.496643 164.244247,57.439499 164.161407,57.336578 
	C164.078568,57.233662 164.504272,57.142132 164.713409,57.202682 
z"/>
<path fill="#C638AA" opacity="1.000000" stroke="none" 
	d="
M217.794403,87.001175 
	C217.862747,99.019417 217.931107,111.037659 217.549591,123.526016 
	C212.157074,124.660645 208.468231,123.349983 206.380981,118.273048 
	C205.667404,116.537384 203.493469,115.402107 201.958527,113.577698 
	C200.220840,106.141014 198.511383,99.119148 197.186584,92.017708 
	C204.365158,90.509003 210.401413,85.976341 217.794403,87.001175 
z"/>
<path fill="#9D33C1" opacity="1.000000" stroke="none" 
	d="
M196.016632,63.018307 
	C198.994171,64.429420 201.971710,65.840530 204.629532,67.615295 
	C202.474945,68.541512 200.622681,69.053757 198.810074,69.680687 
	C196.965683,70.318611 195.201996,71.510368 193.330017,71.687180 
	C187.989014,72.191643 187.720779,72.401955 188.725769,78.160324 
	C187.632431,79.548286 186.823090,80.772697 185.626755,81.989487 
	C182.167587,80.956207 179.095428,79.930550 175.908325,78.584610 
	C173.514908,77.879768 171.236435,77.495201 168.634003,77.122314 
	C167.877792,77.139351 167.445541,77.144699 167.011520,76.719612 
	C166.646545,73.023331 168.166519,71.833748 171.357513,71.947990 
	C173.466125,72.023483 175.785919,72.024162 177.678253,71.247322 
	C183.873108,68.704216 189.915573,65.789902 196.016632,63.018307 
z"/>
<path fill="#D0408B" opacity="1.000000" stroke="none" 
	d="
M218.984467,168.502502 
	C218.652374,170.071915 218.331314,171.186981 217.650009,172.585632 
	C216.070801,171.021652 213.845337,169.189072 213.817566,167.323776 
	C213.726349,161.198273 209.688904,157.085114 207.001862,152.332916 
	C205.978714,150.523422 203.679962,149.435165 201.746338,147.734253 
	C201.037094,144.629547 200.544067,141.808777 200.042130,138.569870 
	C200.675171,136.067245 201.317123,133.982758 201.972549,132.287155 
	C204.145538,136.834015 205.838608,141.342545 208.614960,145.036972 
	C210.761612,147.893448 214.265213,149.730225 217.165543,152.020325 
	C217.775528,157.362930 218.385513,162.705551 218.984467,168.502502 
z"/>
<path fill="#8F37C0" opacity="1.000000" stroke="none" 
	d="
M195.737762,62.774708 
	C189.915573,65.789902 183.873108,68.704216 177.678253,71.247322 
	C175.785919,72.024162 173.466125,72.023483 171.357513,71.947990 
	C168.166519,71.833748 166.646545,73.023331 166.726257,76.887894 
	C164.291061,77.301262 162.139389,77.115913 160.051895,76.588898 
	C162.078110,72.834389 164.040131,69.421555 166.252838,66.006699 
	C166.670654,66.002617 166.837769,66.000549 167.463226,66.000443 
	C170.365494,65.999359 172.813965,65.900070 175.252304,66.015320 
	C179.128632,66.198547 180.319107,64.546730 178.971252,60.958015 
	C180.125351,60.729179 181.279434,60.500343 182.769714,60.142212 
	C187.223557,60.852306 191.341217,61.691708 195.737762,62.774708 
z"/>
<path fill="#CF3C99" opacity="1.000000" stroke="none" 
	d="
M217.311279,151.635773 
	C214.265213,149.730225 210.761612,147.893448 208.614960,145.036972 
	C205.838608,141.342545 204.145538,136.834015 201.965088,131.860382 
	C201.947952,129.022888 201.951752,127.001015 202.328918,124.999466 
	C204.292984,126.627838 206.399536,127.974892 207.371460,129.895981 
	C209.695648,134.489990 212.498093,138.194016 217.957092,138.991913 
	C217.790405,143.078339 217.623718,147.164780 217.311279,151.635773 
z"/>
<path fill="#CA3AA2" opacity="1.000000" stroke="none" 
	d="
M217.981537,138.527100 
	C212.498093,138.194016 209.695648,134.489990 207.371460,129.895981 
	C206.399536,127.974892 204.292984,126.627838 202.322571,124.543800 
	C201.957489,120.709381 201.972122,117.350952 201.986755,113.992523 
	C203.493469,115.402107 205.667404,116.537384 206.380981,118.273048 
	C208.468231,123.349983 212.157074,124.660645 217.529449,123.993774 
	C217.974792,128.681717 217.990387,133.372009 217.981537,138.527100 
z"/>
<path fill="#BC34B1" opacity="1.000000" stroke="none" 
	d="
M217.834076,86.619507 
	C210.401413,85.976341 204.365158,90.509003 196.884552,91.929779 
	C195.127045,90.628410 194.056244,89.335396 192.994446,87.778732 
	C193.007858,87.339256 193.012283,87.163445 193.330658,86.839554 
	C195.613297,85.940178 197.765396,84.265144 199.515961,84.612679 
	C204.546722,85.611412 205.634354,82.937820 206.260315,78.866295 
	C209.021393,78.137527 211.521088,77.550735 214.020782,76.963943 
	C215.305115,80.055237 216.589447,83.146530 217.834076,86.619507 
z"/>
<path fill="#A731C2" opacity="1.000000" stroke="none" 
	d="
M189.009766,77.996773 
	C187.720779,72.401955 187.989014,72.191643 193.330017,71.687180 
	C195.201996,71.510368 196.965683,70.318611 198.810074,69.680687 
	C200.622681,69.053757 202.474945,68.541512 204.726120,67.963074 
	C205.410263,68.091568 205.637314,68.284050 205.903473,69.084175 
	C203.989380,71.762962 201.995407,73.882217 199.649261,76.014030 
	C197.532196,77.019630 195.767319,78.012672 193.666946,78.855377 
	C191.890884,78.468956 190.450333,78.232864 189.009766,77.996773 
z"/>
<path fill="#AC32B7" opacity="1.000000" stroke="none" 
	d="
M200.001450,76.001480 
	C201.995407,73.882217 203.989380,71.762962 206.024109,69.274429 
	C208.602219,71.397675 211.139542,73.890205 213.848816,76.673340 
	C211.521088,77.550735 209.021393,78.137527 205.906555,78.850945 
	C203.528091,77.985542 201.764771,76.993515 200.001450,76.001480 
z"/>
<path fill="#6150CA" opacity="1.000000" stroke="none" 
	d="
M70.943222,84.001236 
	C71.421402,83.093567 71.899582,82.185898 72.930641,81.344147 
	C76.166634,80.596069 78.906319,79.927673 81.512337,78.915237 
	C83.161400,78.274582 84.504280,76.769798 86.170197,76.262703 
	C91.300659,74.701050 96.962921,74.270943 101.588531,71.828957 
	C106.843369,69.054764 111.202225,64.583435 115.950577,60.849876 
	C122.325996,60.853725 128.701416,60.857574 135.439728,61.225304 
	C129.532928,65.065323 123.263252,68.541466 116.647659,72.076210 
	C113.136406,74.031723 110.373383,76.364288 105.976624,75.542870 
	C104.193771,75.209778 101.858513,77.838669 99.773224,79.117477 
	C98.191818,80.087273 96.608200,81.053444 94.703041,82.065628 
	C93.250648,82.740356 92.120789,83.370689 90.534843,83.999809 
	C88.255661,84.001251 86.432556,84.006218 84.609459,84.006073 
	C80.054047,84.005699 75.498634,84.002998 70.943222,84.001236 
z"/>
<path fill="#7145C9" opacity="1.000000" stroke="none" 
	d="
M116.993576,72.017609 
	C123.263252,68.541466 129.532928,65.065323 135.898804,61.244225 
	C136.411407,60.881023 136.827820,60.862774 137.554413,60.818504 
	C141.602310,60.858406 145.340012,60.924328 149.453125,61.324303 
	C146.878540,63.608437 144.058578,65.804794 140.946518,67.447922 
	C136.809937,69.631981 132.524475,71.459686 131.560333,76.986534 
	C128.764053,77.083542 126.410065,77.149666 123.636940,77.168373 
	C121.812836,77.075890 120.407867,77.030823 119.000244,76.627487 
	C118.329582,74.852013 117.661583,73.434814 116.993576,72.017609 
z"/>
<path fill="#5658CC" opacity="1.000000" stroke="none" 
	d="
M115.513680,60.858833 
	C111.202225,64.583435 106.843369,69.054764 101.588531,71.828957 
	C96.962921,74.270943 91.300659,74.701050 86.170197,76.262703 
	C84.504280,76.769798 83.161400,78.274582 81.512337,78.915237 
	C78.906319,79.927673 76.166634,80.596069 73.201843,81.176224 
	C72.920174,80.942390 72.924515,80.496513 73.193535,80.034966 
	C79.884087,76.356400 86.378387,73.274979 92.704521,69.880188 
	C97.925499,67.078453 102.947495,63.905930 108.057671,60.897717 
	C110.397377,60.887741 112.737076,60.877769 115.513680,60.858833 
z"/>
<path fill="#4A61C6" opacity="1.000000" stroke="none" 
	d="
M107.737747,60.685867 
	C102.947495,63.905930 97.925499,67.078453 92.704521,69.880188 
	C86.378387,73.274979 79.884087,76.356400 73.207176,79.812439 
	C72.682503,79.826981 72.413200,79.602509 71.968719,79.176773 
	C76.892433,67.926689 85.833237,62.373276 97.645485,61.047462 
	C100.883598,60.684010 104.159348,60.655975 107.737747,60.685867 
z"/>
<path fill="#FCBB51" opacity="1.000000" stroke="none" 
	d="
M89.991287,207.964630 
	C85.831528,208.583710 82.571838,207.086136 79.953812,203.439346 
	C79.839211,202.951508 79.862633,202.779358 79.930740,202.322357 
	C79.975433,202.037506 80.030098,201.995102 80.400696,201.981110 
	C84.400185,199.847412 88.162552,197.922989 91.623337,195.557373 
	C95.716759,192.759323 99.650009,189.869781 105.440849,191.007187 
	C110.572044,191.364410 115.286415,191.697159 120.113617,192.364319 
	C121.952477,193.761581 124.100189,194.474686 125.325882,195.952484 
	C129.080048,200.478851 132.480194,205.298843 136.018021,210.004639 
	C136.018021,210.004639 135.999023,210.490555 135.982025,210.732849 
	C134.204193,210.753387 132.443359,210.531647 130.279877,209.806137 
	C127.352722,206.585052 124.993881,203.686584 122.266029,201.191589 
	C117.849426,197.151962 111.983192,197.217621 106.529282,196.052505 
	C98.313126,194.297318 91.572456,198.627502 89.998764,207.235199 
	C89.994476,207.478317 89.991287,207.964630 89.991287,207.964630 
z"/>
<path fill="#FDC753" opacity="1.000000" stroke="none" 
	d="
M90.003052,206.992065 
	C91.572456,198.627502 98.313126,194.297318 106.529282,196.052505 
	C111.983192,197.217621 117.849426,197.151962 122.266029,201.191589 
	C124.993881,203.686584 127.352722,206.585052 129.930542,209.653015 
	C125.327110,210.164780 121.429977,209.884583 117.890892,205.422775 
	C113.890541,200.379410 101.703629,202.581543 95.734642,208.663651 
	C94.861900,209.041290 94.416153,209.076477 93.970398,209.111664 
	C93.970398,209.111664 93.970680,209.062393 93.877968,208.702606 
	C92.524521,207.892563 91.263786,207.442322 90.003052,206.992065 
z"/>
<path fill="#F5D67A" opacity="1.000000" stroke="none" 
	d="
M94.079796,209.423706 
	C94.416153,209.076477 94.861900,209.041290 95.642258,208.992889 
	C96.301422,209.437958 96.625977,209.896240 97.026466,210.628265 
	C96.131332,210.513245 95.160263,210.124512 94.079796,209.423706 
z"/>
<path fill="#DA4382" opacity="1.000000" stroke="none" 
	d="
M201.962555,148.018204 
	C203.679962,149.435165 205.978714,150.523422 207.001862,152.332916 
	C209.688904,157.085114 213.726349,161.198273 213.817566,167.323776 
	C213.845337,169.189072 216.070801,171.021652 217.638321,172.946976 
	C217.793152,177.177429 217.599426,181.330109 216.962799,185.527252 
	C214.729858,182.633835 212.265488,179.900940 211.296646,176.713486 
	C209.529495,170.899612 205.197174,167.574539 200.963791,163.609314 
	C201.304672,158.153915 201.633621,153.086060 201.962555,148.018204 
z"/>
<path fill="#DF4678" opacity="1.000000" stroke="none" 
	d="
M200.951843,163.996857 
	C205.197174,167.574539 209.529495,170.899612 211.296646,176.713486 
	C212.265488,179.900940 214.729858,182.633835 216.769394,185.800995 
	C214.911835,189.980789 212.804779,193.931290 210.349777,197.531128 
	C209.348129,194.318237 209.058914,191.307037 207.962967,188.625549 
	C205.847458,183.449356 203.305405,178.445068 200.833923,173.421799 
	C200.655930,173.060059 199.615112,173.122818 199.132874,172.628311 
	C199.844116,169.511215 200.397980,166.754044 200.951843,163.996857 
z"/>
<path fill="#ED4B63" opacity="1.000000" stroke="none" 
	d="
M206.025116,200.007065 
	C205.958267,204.079544 203.817459,206.007980 199.249969,205.720047 
	C196.853699,201.654785 193.889343,197.995346 193.500000,194.079865 
	C193.077484,189.830688 191.891602,188.054825 187.983948,187.599548 
	C190.379074,184.849991 192.666748,182.414490 195.280365,180.140396 
	C196.732590,182.884186 197.859528,185.466263 198.984818,188.049057 
	C199.867416,190.074799 200.559006,192.213867 201.679977,194.097580 
	C202.924438,196.188751 204.559891,198.047256 206.025116,200.007065 
z"/>
<path fill="#E7476E" opacity="1.000000" stroke="none" 
	d="
M206.339966,199.934204 
	C204.559891,198.047256 202.924438,196.188751 201.679977,194.097580 
	C200.559006,192.213867 199.867416,190.074799 198.984818,188.049057 
	C197.859528,185.466263 196.732590,182.884186 195.435867,179.836761 
	C196.502090,177.243881 197.738785,175.116058 198.975479,172.988220 
	C199.615112,173.122818 200.655930,173.060059 200.833923,173.421799 
	C203.305405,178.445068 205.847458,183.449356 207.962967,188.625549 
	C209.058914,191.307037 209.348129,194.318237 210.005493,197.596176 
	C208.891037,198.628372 207.772934,199.244873 206.339966,199.934204 
z"/>
<path fill="#EF4F55" opacity="1.000000" stroke="none" 
	d="
M187.876495,187.913620 
	C191.891602,188.054825 193.077484,189.830688 193.500000,194.079865 
	C193.889343,197.995346 196.853699,201.654785 198.860901,205.720795 
	C198.780365,206.512619 198.522720,207.010681 198.141907,207.760620 
	C195.628357,208.346359 193.237961,208.680252 190.430634,208.598022 
	C190.639297,204.095383 190.496185,200.449249 187.802246,196.690292 
	C186.094208,194.306992 187.452942,189.877243 183.286194,188.721817 
	C185.003464,188.300781 186.439972,188.107208 187.876495,187.913620 
z"/>
<path fill="#7C3FCA" opacity="1.000000" stroke="none" 
	d="
M132.002609,76.955643 
	C132.524475,71.459686 136.809937,69.631981 140.946518,67.447922 
	C144.058578,65.804794 146.878540,63.608437 149.914673,61.330082 
	C154.352020,60.994282 158.703217,60.986755 163.617157,61.312057 
	C165.121567,63.096085 166.063217,64.547279 167.004883,65.998474 
	C166.837769,66.000549 166.670654,66.002617 165.804657,66.003510 
	C159.850204,66.843094 154.594650,67.683846 149.295105,68.531631 
	C149.433029,71.300934 149.504059,72.726913 149.602768,74.708748 
	C147.274033,74.813324 145.144424,74.693214 143.105026,75.066208 
	C141.353027,75.386635 139.704086,76.270378 137.581757,76.946815 
	C135.436829,76.977623 133.719727,76.966637 132.002609,76.955643 
z"/>
<path fill="#823BC4" opacity="1.000000" stroke="none" 
	d="
M167.463226,66.000443 
	C166.063217,64.547279 165.121567,63.096085 164.080627,61.318123 
	C168.726501,60.874840 173.471680,60.758316 178.594055,60.799904 
	C180.319107,64.546730 179.128632,66.198547 175.252304,66.015320 
	C172.813965,65.900070 170.365494,65.999359 167.463226,66.000443 
z"/>
<path fill="#A13AA2" opacity="1.000000" stroke="none" 
	d="
M67.024315,113.100800 
	C66.691994,111.962357 66.359673,110.823914 66.031708,109.312668 
	C66.344208,107.514854 66.652367,106.089851 67.382370,104.387070 
	C69.653580,104.413353 71.549149,105.128578 73.341652,104.927040 
	C76.172142,104.608803 78.957878,103.760757 81.715401,102.972046 
	C83.531174,102.452705 85.264107,101.643707 87.244217,101.231209 
	C87.896851,102.997032 88.339409,104.496056 88.820343,106.351143 
	C88.493118,107.805504 88.127510,108.903809 87.373779,110.003098 
	C84.277283,109.553574 80.517426,107.769165 79.066048,108.913261 
	C75.343987,111.847298 71.102486,111.971329 67.024315,113.100800 
z"/>
<path fill="#8342B9" opacity="1.000000" stroke="none" 
	d="
M68.017532,100.960220 
	C68.286644,98.565285 68.555756,96.170341 69.265030,93.543365 
	C72.081505,93.232735 74.504669,93.423187 76.824371,93.019379 
	C81.606102,92.186981 86.332619,91.037361 91.013756,90.361870 
	C89.654099,92.794304 88.362534,94.883125 86.696228,96.992516 
	C80.220169,98.328796 74.118851,99.644508 68.017532,100.960220 
z"/>
<path fill="#6E4BC3" opacity="1.000000" stroke="none" 
	d="
M70.703438,84.273407 
	C75.498634,84.002998 80.054047,84.005699 84.609459,84.006073 
	C86.432556,84.006218 88.255661,84.001251 90.356384,84.290886 
	C89.556168,85.322456 88.576363,86.385323 87.383972,86.746605 
	C81.290504,88.592888 75.142166,90.258125 69.013023,91.986679 
	C69.496567,89.506310 69.980110,87.025948 70.703438,84.273407 
z"/>
<path fill="#923EB2" opacity="1.000000" stroke="none" 
	d="
M67.794624,101.199829 
	C74.118851,99.644508 80.220169,98.328796 86.693192,97.393112 
	C87.054657,98.836906 87.044395,99.900658 87.034134,100.964409 
	C85.264107,101.643707 83.531174,102.452705 81.715401,102.972046 
	C78.957878,103.760757 76.172142,104.608803 73.341652,104.927040 
	C71.549149,105.128578 69.653580,104.413353 67.473480,104.029617 
	C67.285728,103.113113 67.428719,102.276283 67.794624,101.199829 
z"/>
<path fill="#7946C3" opacity="1.000000" stroke="none" 
	d="
M69.000519,92.239716 
	C75.142166,90.258125 81.290504,88.592888 87.383972,86.746605 
	C88.576363,86.385323 89.556168,85.322456 90.812469,84.292091 
	C92.120789,83.370689 93.250648,82.740356 94.756805,82.363953 
	C95.479149,83.098999 95.825203,83.580124 96.089203,84.392639 
	C94.365379,86.488777 92.723618,88.253525 91.081848,90.018272 
	C86.332619,91.037361 81.606102,92.186981 76.824371,93.019379 
	C74.504669,93.423187 72.081505,93.232735 69.345940,93.155380 
	C68.987129,92.830544 68.987572,92.661644 69.000519,92.239716 
z"/>
<path fill="#FCD35D" opacity="1.000000" stroke="none" 
	d="
M89.998764,207.235199 
	C91.263786,207.442322 92.524521,207.892563 93.887466,208.679871 
	C93.248703,209.024750 92.507729,209.032562 91.396805,209.046646 
	C90.774948,208.830551 90.523056,208.608185 90.131226,208.175232 
	C89.991287,207.964630 89.994476,207.478317 89.998764,207.235199 
z"/>
<path fill="#FB5642" opacity="1.000000" stroke="none" 
	d="
M67.111320,155.991577 
	C67.252464,153.867554 67.393600,151.743530 68.119972,149.243225 
	C73.468208,144.829544 79.666367,146.825165 85.091934,145.199585 
	C85.424454,145.653854 85.654045,145.875443 85.918930,146.367188 
	C85.936714,147.077255 85.952293,147.482880 85.757416,148.152283 
	C85.334297,149.281006 85.121643,150.145935 84.697739,151.300446 
	C84.209946,155.193512 82.143593,157.226639 78.709747,157.796463 
	C75.496933,158.329590 72.243050,158.615204 68.988365,158.674927 
	C68.350098,157.557236 67.730713,156.774414 67.111320,155.991577 
z"/>
<path fill="#F2514F" opacity="1.000000" stroke="none" 
	d="
M84.955902,145.001175 
	C79.666367,146.825165 73.468208,144.829544 68.350029,148.930115 
	C67.992462,145.306183 67.990082,141.619095 68.238419,137.460297 
	C68.489128,136.988571 68.987045,136.973145 69.424377,136.981873 
	C74.580070,135.992294 79.298439,134.994003 84.044678,134.408051 
	C84.366997,138.213989 84.661453,141.607590 84.955902,145.001175 
z"/>
<path fill="#F96740" opacity="1.000000" stroke="none" 
	d="
M67.082581,156.393829 
	C67.730713,156.774414 68.350098,157.557236 68.984985,159.118088 
	C69.001755,162.265091 69.003014,164.634064 69.003235,167.402954 
	C69.001183,168.869797 69.000153,169.936752 68.682022,171.003342 
	C67.943436,171.002991 67.521950,171.003006 67.100456,171.003006 
	C67.068382,167.647720 67.036308,164.292435 67.001663,160.482025 
	C67.017342,158.949951 67.035599,157.873001 67.082581,156.393829 
z"/>
<path fill="#E94A65" opacity="1.000000" stroke="none" 
	d="
M68.987045,136.973145 
	C68.987045,136.973145 68.489128,136.988571 68.240227,137.000458 
	C67.991325,137.012360 67.503212,136.984100 67.259628,136.965942 
	C67.310280,134.550308 67.604523,132.152802 68.392975,129.372192 
	C70.259842,128.997726 71.632500,129.006393 72.902328,129.349396 
	C70.310974,131.476669 68.216377,133.475616 68.987045,136.973145 
z"/>
<path fill="#FB8248" opacity="1.000000" stroke="none" 
	d="
M160.058990,210.889664 
	C158.662109,210.922333 157.265244,210.954987 155.451630,210.986725 
	C154.865707,210.981949 154.696518,210.978104 154.251801,210.588104 
	C153.153229,208.067566 152.116150,205.987823 151.554352,203.786774 
	C150.567902,199.922012 149.872437,195.982986 149.493774,192.050339 
	C152.960510,192.351486 155.988571,192.677353 158.714172,193.200500 
	C158.063171,195.035233 157.229584,196.744476 157.459274,198.296341 
	C158.085892,202.529633 159.161346,206.696487 160.058990,210.889664 
z"/>
<path fill="#F6924C" opacity="1.000000" stroke="none" 
	d="
M149.055084,192.075043 
	C149.872437,195.982986 150.567902,199.922012 151.554352,203.786774 
	C152.116150,205.987823 153.153229,208.067566 153.998169,210.578125 
	C151.608978,210.687012 149.197922,210.419708 146.376068,209.689285 
	C145.151993,202.358261 141.584778,196.935379 137.385468,192.037933 
	C139.219818,192.011154 140.630203,192.013016 142.474915,191.993561 
	C144.957855,192.006516 147.006470,192.040787 149.055084,192.075043 
z"/>
<path fill="#FAAF50" opacity="1.000000" stroke="none" 
	d="
M136.433273,210.005951 
	C132.480194,205.298843 129.080048,200.478851 125.325882,195.952484 
	C124.100189,194.474686 121.952477,193.761581 120.563492,192.356689 
	C123.600266,192.026550 126.300003,192.038452 129.087006,192.370239 
	C130.433411,193.944504 131.966400,195.023926 132.900421,196.486008 
	C135.727371,200.911041 138.322113,205.484421 141.007324,210.000000 
	C139.621063,210.002411 138.234787,210.004837 136.433273,210.005951 
z"/>
<path fill="#FAA14A" opacity="1.000000" stroke="none" 
	d="
M141.423401,210.002106 
	C138.322113,205.484421 135.727371,200.911041 132.900421,196.486008 
	C131.966400,195.023926 130.433411,193.944504 129.530212,192.357742 
	C132.244583,192.039124 134.603043,192.052856 136.961502,192.066605 
	C141.584778,196.935379 145.151993,202.358261 145.984589,209.618210 
	C144.615768,210.008240 143.227631,210.006226 141.423401,210.002106 
z"/>
<path fill="#B53F90" opacity="1.000000" stroke="none" 
	d="
M67.006485,113.517899 
	C71.102486,111.971329 75.343987,111.847298 79.066048,108.913261 
	C80.517426,107.769165 84.277283,109.553574 87.447464,110.461395 
	C87.873039,114.950142 87.836815,118.981590 87.493614,123.013794 
	C86.777214,123.030670 86.367783,123.046791 85.945953,123.031006 
	C85.933548,122.999100 85.891121,122.945358 85.898071,122.578888 
	C85.353691,119.644608 85.171982,116.724838 81.182800,117.749474 
	C76.800781,118.875000 72.402031,119.935364 68.010567,121.024117 
	C67.669930,118.661079 67.329292,116.298042 67.006485,113.517899 
z"/>
<path fill="#D43E82" opacity="1.000000" stroke="none" 
	d="
M68.006439,121.422981 
	C72.402031,119.935364 76.800781,118.875000 81.182800,117.749474 
	C85.171982,116.724838 85.353691,119.644608 85.475639,122.596779 
	C79.391312,123.659531 73.736366,124.337914 68.081413,125.016296 
	C68.055046,123.951477 68.028679,122.886665 68.006439,121.422981 
z"/>
<path fill="#E04774" opacity="1.000000" stroke="none" 
	d="
M68.055710,125.411819 
	C73.736366,124.337914 79.391312,123.659531 85.468689,122.963257 
	C85.891121,122.945358 85.933548,122.999100 85.896004,123.365036 
	C85.247108,125.157036 84.635757,126.583092 83.586418,128.004547 
	C79.767334,128.338318 76.386246,128.676682 73.005150,129.015045 
	C71.632500,129.006393 70.259842,128.997726 68.478554,128.981689 
	C68.056610,127.918671 68.043312,126.862999 68.055710,125.411819 
z"/>
<path fill="#FB8248" opacity="1.000000" stroke="none" 
	d="
M70.008347,188.005127 
	C69.221077,187.052353 68.433800,186.099564 67.345642,185.056122 
	C67.034004,183.581131 67.023247,182.196808 67.406990,180.398041 
	C74.286232,176.599182 81.295341,174.014038 86.286316,168.266449 
	C87.023918,170.343933 87.534004,172.160889 87.680130,174.006668 
	C81.302895,178.389740 74.335266,181.561554 70.008347,188.005127 
z"/>
<path fill="#FA7444" opacity="1.000000" stroke="none" 
	d="
M86.058807,168.005905 
	C81.295341,174.014038 74.286232,176.599182 67.426483,179.982391 
	C66.734070,177.276321 66.416664,174.571472 66.095627,171.469772 
	C66.259628,171.060455 66.427261,171.048004 66.847672,171.019272 
	C67.521950,171.003006 67.943436,171.002991 68.776794,171.323654 
	C69.529755,171.976974 70.036102,172.661972 70.187805,172.590851 
	C74.102127,170.754959 77.977219,168.835617 81.864532,166.941849 
	C83.226562,166.278336 84.602913,165.644211 85.993790,165.372253 
	C86.029510,166.500519 86.044159,167.253220 86.058807,168.005905 
z"/>
<path fill="#F5504B" opacity="1.000000" stroke="none" 
	d="
M183.005432,188.949249 
	C187.452942,189.877243 186.094208,194.306992 187.802246,196.690292 
	C190.496185,200.449249 190.639297,204.095383 190.021484,208.589478 
	C187.988068,209.003998 185.946823,209.010971 183.386627,208.641754 
	C182.306320,207.080078 181.565430,205.944565 181.219025,204.699310 
	C180.349182,201.572647 176.293320,194.800186 174.210663,192.706116 
	C175.969803,191.644119 177.505768,190.811874 179.357208,189.840820 
	C180.783615,189.451111 181.894531,189.200180 183.005432,188.949249 
z"/>
<path fill="#FB5642" opacity="1.000000" stroke="none" 
	d="
M173.987503,192.935883 
	C176.293320,194.800186 180.349182,201.572647 181.219025,204.699310 
	C181.565430,205.944565 182.306320,207.080078 182.950455,208.633911 
	C182.721420,209.455841 182.409576,209.909393 182.043854,210.636169 
	C180.611206,210.909073 179.232437,210.908752 177.316437,210.573883 
	C174.874054,208.467392 172.088608,207.029739 171.260468,204.848846 
	C169.854034,201.145050 169.681000,196.972885 169.406647,192.990082 
	C171.211609,192.967026 172.599548,192.951447 173.987503,192.935883 
z"/>
<path fill="#F96740" opacity="1.000000" stroke="none" 
	d="
M168.989624,192.997559 
	C169.681000,196.972885 169.854034,201.145050 171.260468,204.848846 
	C172.088608,207.029739 174.874054,208.467392 176.903046,210.557678 
	C175.305817,210.911377 173.584717,210.946732 171.434021,210.985077 
	C169.948730,210.960587 168.893082,210.933105 167.410248,210.520676 
	C165.649109,204.738159 164.315140,199.340622 163.287521,193.717407 
	C165.392456,193.326996 167.191040,193.162277 168.989624,192.997559 
z"/>
<path fill="#FA7444" opacity="1.000000" stroke="none" 
	d="
M162.981171,193.943069 
	C164.315140,199.340622 165.649109,204.738159 167.014755,210.502594 
	C165.005447,210.891602 162.964447,210.913712 160.491226,210.912735 
	C159.161346,206.696487 158.085892,202.529633 157.459274,198.296341 
	C157.229584,196.744476 158.063171,195.035233 159.030411,193.334610 
	C160.759796,193.495316 161.870483,193.719193 162.981171,193.943069 
z"/>
<path fill="#FAA14A" opacity="1.000000" stroke="none" 
	d="
M75.031754,197.320862 
	C74.986115,196.588974 74.992783,196.136124 75.360077,195.321060 
	C77.008583,193.587311 78.168938,192.061188 79.608551,190.873596 
	C83.708412,187.491470 87.922028,184.247269 92.372269,181.122528 
	C94.057152,181.900955 95.460640,182.505676 96.923462,183.307861 
	C96.982780,183.505310 97.024757,183.915527 96.960663,184.266602 
	C92.583344,188.013153 88.257500,191.392807 83.963150,194.811996 
	C82.268059,196.161606 80.643112,197.599335 78.613434,198.996887 
	C77.495171,198.995834 76.749687,198.994812 76.004211,198.993790 
	C75.697495,198.529160 75.390778,198.064529 75.031754,197.320862 
z"/>
<path fill="#EB9E54" opacity="1.000000" stroke="none" 
	d="
M76.150200,199.299866 
	C76.749687,198.994812 77.495171,198.995834 78.747444,199.287292 
	C79.512863,200.383545 79.771477,201.189316 80.030098,201.995102 
	C80.030098,201.995102 79.975433,202.037506 79.949432,202.062408 
	C78.714340,201.260193 77.505264,200.433075 76.150200,199.299866 
z"/>
<path fill="#FA9049" opacity="1.000000" stroke="none" 
	d="
M92.090881,180.948792 
	C87.922028,184.247269 83.708412,187.491470 79.608551,190.873596 
	C78.168938,192.061188 77.008583,193.587311 75.361404,194.981781 
	C73.431488,192.872681 71.860870,190.740631 70.149307,188.306854 
	C74.335266,181.561554 81.302895,178.389740 87.925308,174.232178 
	C89.719917,176.602158 90.905403,178.775482 92.090881,180.948792 
z"/>
<path fill="#9C3F8F" opacity="1.000000" stroke="none" 
	d="
M192.985443,88.042389 
	C194.056244,89.335396 195.127045,90.628410 196.499878,92.009354 
	C198.511383,99.119148 200.220840,106.141014 201.958527,113.577705 
	C201.972122,117.350952 201.957489,120.709381 201.949203,124.523483 
	C201.951752,127.001015 201.947952,129.022888 201.951599,131.471527 
	C201.317123,133.982758 200.675171,136.067245 199.818604,138.572693 
	C199.603989,138.993668 199.158020,139.000519 199.092514,138.536087 
	C197.996384,127.028900 199.866074,116.012283 197.318558,104.806633 
	C194.273468,91.412399 185.569443,83.533211 173.098572,80.567490 
	C173.429596,79.865425 173.720032,79.429268 174.346222,78.987595 
	C175.129059,78.956360 175.576172,78.930626 176.023270,78.904892 
	C179.095428,79.930550 182.167587,80.956207 185.832642,82.245834 
	C188.612167,84.353996 190.798798,86.198189 192.985443,88.042389 
z"/>
<path fill="#683C92" opacity="1.000000" stroke="none" 
	d="
M174.010468,78.993103 
	C173.720032,79.429268 173.429596,79.865425 172.647644,80.633636 
	C165.441620,80.587402 158.727142,80.209114 152.276215,79.638336 
	C153.729095,78.937805 154.918411,78.429764 156.454788,77.899445 
	C157.863815,77.561638 158.925751,77.246101 159.987701,76.930565 
	C162.139389,77.115913 164.291061,77.301262 166.728012,77.318329 
	C167.445541,77.144699 167.877792,77.139351 168.914886,77.321220 
	C171.016632,78.003334 172.513550,78.498222 174.010468,78.993103 
z"/>
<path fill="#AC32B7" opacity="1.000000" stroke="none" 
	d="
M192.994446,87.778732 
	C190.798798,86.198189 188.612167,84.353996 186.219635,82.253456 
	C186.823090,80.772697 187.632431,79.548286 188.725769,78.160324 
	C190.450333,78.232864 191.890884,78.468956 193.662674,79.220200 
	C193.668167,82.152779 193.342438,84.570198 193.016724,86.987625 
	C193.012283,87.163445 193.007858,87.339256 192.994446,87.778732 
z"/>
<path fill="#8F37C0" opacity="1.000000" stroke="none" 
	d="
M174.346222,78.987595 
	C172.513550,78.498222 171.016632,78.003334 169.238831,77.309540 
	C171.236435,77.495201 173.514908,77.879768 175.908325,78.584618 
	C175.576172,78.930626 175.129059,78.956360 174.346222,78.987595 
z"/>
<path fill="#B95069" opacity="1.000000" stroke="none" 
	d="
M199.158020,139.000519 
	C199.158020,139.000519 199.603989,138.993668 199.827515,138.990845 
	C200.544067,141.808777 201.037094,144.629547 201.746338,147.734253 
	C201.633621,153.086060 201.304672,158.153915 200.963791,163.609314 
	C200.397980,166.754044 199.844116,169.511215 199.132874,172.628311 
	C197.738785,175.116058 196.502090,177.243881 195.109894,179.675354 
	C192.666748,182.414490 190.379074,184.849991 187.983948,187.599548 
	C186.439972,188.107208 185.003464,188.300781 183.286194,188.721802 
	C181.894531,189.200180 180.783615,189.451111 179.347595,189.484894 
	C178.984772,188.555634 178.947083,187.843552 179.295105,187.059799 
	C181.881607,186.061905 184.423599,185.565521 186.224701,184.135788 
	C194.465561,177.594101 198.500076,168.766357 198.967850,158.367935 
	C199.257782,151.922318 199.109573,145.457001 199.158020,139.000519 
z"/>
<path fill="#823BC4" opacity="1.000000" stroke="none" 
	d="
M160.051895,76.588898 
	C158.925751,77.246101 157.863815,77.561638 155.974335,77.886391 
	C149.434387,77.565414 143.721985,77.235214 138.009567,76.905022 
	C139.704086,76.270378 141.353027,75.386635 143.105026,75.066208 
	C145.144424,74.693214 147.274033,74.813324 149.602768,74.708748 
	C149.504059,72.726913 149.433029,71.300934 149.295105,68.531631 
	C154.594650,67.683846 159.850204,66.843094 165.553955,66.005524 
	C164.040131,69.421555 162.078110,72.834389 160.051895,76.588898 
z"/>
<path fill="#B430BB" opacity="1.000000" stroke="none" 
	d="
M193.330658,86.839554 
	C193.342438,84.570198 193.668167,82.152779 193.998169,79.370529 
	C195.767319,78.012672 197.532196,77.019630 199.649261,76.014038 
	C201.764771,76.993515 203.528091,77.985542 205.645172,78.992928 
	C205.634354,82.937820 204.546722,85.611412 199.515961,84.612679 
	C197.765396,84.265144 195.613297,85.940178 193.330658,86.839554 
z"/>
<path fill="#6848BF" opacity="1.000000" stroke="none" 
	d="
M96.171257,84.061249 
	C95.825203,83.580124 95.479149,83.098999 95.079330,82.319550 
	C96.608200,81.053444 98.191818,80.087273 99.773224,79.117477 
	C101.858513,77.838669 104.193771,75.209778 105.976624,75.542870 
	C110.373383,76.364288 113.136406,74.031723 116.647659,72.076210 
	C117.661583,73.434814 118.329582,74.852013 118.698624,76.868713 
	C110.990189,79.665886 103.580719,81.863564 96.171257,84.061249 
z"/>
<path fill="#683C92" opacity="1.000000" stroke="none" 
	d="
M96.089203,84.392632 
	C103.580719,81.863564 110.990189,79.665886 118.701279,77.226974 
	C120.407867,77.030823 121.812836,77.075890 123.623024,77.490463 
	C124.010841,78.515327 123.993439,79.170692 123.535736,79.888428 
	C117.281029,81.261047 111.304924,82.091675 105.687271,83.985565 
	C95.332329,87.476555 91.073944,96.082375 88.781967,105.995079 
	C88.339409,104.496056 87.896851,102.997032 87.244217,101.231209 
	C87.044395,99.900658 87.054657,98.836906 87.067940,97.372559 
	C88.362534,94.883125 89.654099,92.794304 91.013763,90.361877 
	C92.723618,88.253525 94.365379,86.488777 96.089203,84.392632 
z"/>
<path fill="#623E81" opacity="1.000000" stroke="none" 
	d="
M123.976028,79.826050 
	C123.993439,79.170692 124.010841,78.515327 124.042160,77.537872 
	C126.410065,77.149666 128.764053,77.083542 131.560333,76.986534 
	C133.719727,76.966637 135.436829,76.977623 137.581757,76.946815 
	C143.721985,77.235214 149.434387,77.565414 155.627258,77.908661 
	C154.918411,78.429764 153.729095,78.937805 151.810699,79.703079 
	C142.046417,79.915558 133.011230,79.870804 123.976028,79.826050 
z"/>
<path fill="#FAAF50" opacity="1.000000" stroke="none" 
	d="
M80.400696,201.981110 
	C79.771477,201.189316 79.512863,200.383545 79.120239,199.287354 
	C80.643112,197.599335 82.268059,196.161606 83.963150,194.811996 
	C88.257500,191.392807 92.583344,188.013153 97.288429,184.316559 
	C98.116814,184.072876 98.553352,184.130310 99.010544,184.546326 
	C101.028801,186.930847 103.026405,188.956787 105.024017,190.982727 
	C99.650009,189.869781 95.716759,192.759323 91.623337,195.557373 
	C88.162552,197.922989 84.400185,199.847412 80.400696,201.981110 
z"/>
<path fill="#EAB26A" opacity="1.000000" stroke="none" 
	d="
M105.440842,191.007187 
	C103.026405,188.956787 101.028801,186.930847 99.387482,184.588196 
	C103.949707,186.148758 108.037003,189.224182 112.386208,189.654877 
	C121.550797,190.562454 130.852600,190.084381 140.280197,190.369598 
	C140.988388,191.047821 141.514496,191.531357 142.040588,192.014877 
	C140.630203,192.013016 139.219818,192.011154 137.385468,192.037933 
	C134.603043,192.052856 132.244583,192.039124 129.442932,192.037872 
	C126.300003,192.038452 123.600266,192.026550 120.450653,192.022278 
	C115.286415,191.697159 110.572044,191.364410 105.440842,191.007187 
z"/>
<path fill="#000000" opacity="1.000000" stroke="none" 
	d="
M140.098099,190.174896 
	C130.852600,190.084381 121.550797,190.562454 112.386208,189.654877 
	C108.037003,189.224182 103.949707,186.148758 99.366821,184.229614 
	C98.553352,184.130310 98.116814,184.072876 97.352524,183.965485 
	C97.024757,183.915527 96.982780,183.505310 96.997864,182.926071 
	C96.490723,181.211945 96.137474,179.954361 95.417595,178.962997 
	C91.949409,174.186920 88.878204,169.363403 88.815300,163.085175 
	C88.758163,157.382996 88.168625,151.686127 87.888123,145.525375 
	C87.908493,137.713562 87.854538,130.363312 87.800591,123.013046 
	C87.836815,118.981590 87.873039,114.950142 87.835587,110.460396 
	C88.127510,108.903809 88.493118,107.805504 88.820343,106.351143 
	C91.073944,96.082375 95.332329,87.476555 105.687271,83.985565 
	C111.304924,82.091675 117.281029,81.261047 123.535736,79.888428 
	C133.011230,79.870804 142.046417,79.915558 151.547134,79.895569 
	C158.727142,80.209114 165.441620,80.587402 172.607040,80.899544 
	C185.569443,83.533211 194.273468,91.412399 197.318558,104.806633 
	C199.866074,116.012283 197.996384,127.028900 199.092514,138.536087 
	C199.109573,145.457001 199.257782,151.922318 198.967850,158.367935 
	C198.500076,168.766357 194.465561,177.594101 186.224701,184.135788 
	C184.423599,185.565521 181.881607,186.061905 178.909470,187.023590 
	C174.886047,188.049561 171.666214,189.746536 168.375839,189.896576 
	C158.965271,190.325745 149.526047,190.126816 140.098099,190.174896 
M97.049240,164.901215 
	C97.037994,172.192581 103.378845,180.675919 110.905151,181.852509 
	C117.488174,182.881638 124.287476,182.527313 131.918854,182.929184 
	C137.948730,182.889618 143.978607,182.850052 150.925705,182.984985 
	C157.047775,182.988800 163.282745,183.710159 169.256332,182.770248 
	C174.067841,182.013184 178.809830,179.690247 183.143463,177.274231 
	C190.265549,173.303665 189.972153,165.795380 190.926483,158.181442 
	C190.876282,157.150543 190.826065,156.119629 190.925507,154.318695 
	C190.880325,153.537857 190.835144,152.757034 190.932220,151.051575 
	C190.567612,135.377960 190.203003,119.704338 189.883362,103.496567 
	C189.602097,103.294960 189.320816,103.093353 188.947601,102.472740 
	C188.947601,102.472740 188.832855,102.059387 188.793076,101.353050 
	C185.505737,93.113342 178.918518,88.697624 170.582275,88.155472 
	C156.531204,87.241661 142.408661,87.037155 128.324310,87.207275 
	C122.294090,87.280113 116.148895,88.546944 110.296104,90.148773 
	C100.924316,92.713707 96.535164,99.547089 97.148895,109.821510 
	C96.523186,114.922485 95.897476,120.023460 95.087570,126.029602 
	C95.045364,137.084656 94.912407,148.140900 95.059860,159.193436 
	C95.081696,160.830643 96.427704,162.450165 97.049240,164.901215 
z"/>
<path fill="#FB5F3F" opacity="1.000000" stroke="none" 
	d="
M69.004272,167.003052 
	C69.003014,164.634064 69.001755,162.265091 69.003860,159.452942 
	C72.243050,158.615204 75.496933,158.329590 78.709747,157.796463 
	C82.143593,157.226639 84.209946,155.193512 84.962791,151.326141 
	C85.613831,151.089645 85.788559,151.117065 85.954941,151.585449 
	C85.909653,154.683777 85.872696,157.341156 85.462631,160.001556 
	C82.404358,161.159393 79.715363,162.305405 77.035126,163.471542 
	C74.353622,164.638245 71.680862,165.825058 69.004272,167.003052 
z"/>
<path fill="#CB825B" opacity="1.000000" stroke="none" 
	d="
M85.835739,159.998520 
	C85.872696,157.341156 85.909653,154.683777 85.977448,151.177002 
	C85.994820,149.514557 85.981346,148.701523 85.967873,147.888489 
	C85.952293,147.482880 85.936714,147.077255 86.235649,146.348633 
	C86.971375,146.012726 87.392593,145.999832 87.813797,145.986923 
	C88.168625,151.686127 88.758163,157.382996 88.815300,163.085175 
	C88.878204,169.363403 91.949409,174.186920 95.417595,178.962997 
	C96.137474,179.954361 96.490723,181.211945 96.938538,182.728607 
	C95.460640,182.505676 94.057152,181.900955 92.372276,181.122528 
	C90.905403,178.775482 89.719917,176.602158 88.289261,174.203339 
	C87.534004,172.160889 87.023918,170.343933 86.286316,168.266449 
	C86.044159,167.253220 86.029510,166.500519 86.007736,164.955566 
	C85.945656,162.775040 85.890701,161.386780 85.835739,159.998520 
z"/>
<path fill="#CC5B60" opacity="1.000000" stroke="none" 
	d="
M87.888123,145.525375 
	C87.392593,145.999832 86.971375,146.012726 86.233444,146.044189 
	C85.654045,145.875443 85.424454,145.653854 85.091934,145.199585 
	C84.661453,141.607590 84.366997,138.213989 84.048172,133.980530 
	C84.024002,131.430145 84.024208,129.719650 84.024406,128.009155 
	C84.635757,126.583092 85.247108,125.157036 85.908409,123.396942 
	C86.367783,123.046791 86.777214,123.030670 87.493614,123.013794 
	C87.854538,130.363312 87.908493,137.713562 87.888123,145.525375 
z"/>
<path fill="#CC5B60" opacity="1.000000" stroke="none" 
	d="
M85.757416,148.152283 
	C85.981346,148.701523 85.994820,149.514557 85.985786,150.736023 
	C85.788559,151.117065 85.613831,151.089645 85.174057,151.036530 
	C85.121643,150.145935 85.334297,149.281006 85.757416,148.152283 
z"/>
<path fill="#ED4D5D" opacity="1.000000" stroke="none" 
	d="
M83.586418,128.004547 
	C84.024208,129.719650 84.024002,131.430145 84.020309,133.568176 
	C79.298439,134.994003 74.580070,135.992294 69.424377,136.981873 
	C68.216377,133.475616 70.310974,131.476669 72.902328,129.349396 
	C76.386246,128.676682 79.767334,128.338318 83.586418,128.004547 
z"/>
<path fill="#FB6842" opacity="1.000000" stroke="none" 
	d="
M85.462631,160.001556 
	C85.890701,161.386780 85.945656,162.775040 85.986664,164.579987 
	C84.602913,165.644211 83.226562,166.278336 81.864532,166.941849 
	C77.977219,168.835617 74.102127,170.754959 70.187805,172.590851 
	C70.036102,172.661972 69.529755,171.976974 69.093895,171.324005 
	C69.000153,169.936752 69.001183,168.869797 69.003235,167.402954 
	C71.680862,165.825058 74.353622,164.638245 77.035126,163.471542 
	C79.715363,162.305405 82.404358,161.159393 85.462631,160.001556 
z"/>
<path fill="#D96950" opacity="1.000000" stroke="none" 
	d="
M140.280197,190.369598 
	C149.526047,190.126816 158.965271,190.325745 168.375839,189.896576 
	C171.666214,189.746536 174.886047,188.049561 178.523743,187.095245 
	C178.947083,187.843552 178.984772,188.555634 179.032089,189.623672 
	C177.505768,190.811874 175.969803,191.644119 174.210663,192.706116 
	C172.599548,192.951447 171.211609,192.967026 169.406647,192.990082 
	C167.191040,193.162277 165.392456,193.326996 163.287521,193.717407 
	C161.870483,193.719193 160.759796,193.495316 159.332870,193.137329 
	C155.988571,192.677353 152.960510,192.351486 149.493774,192.050323 
	C147.006470,192.040787 144.957855,192.006516 142.474915,191.993561 
	C141.514496,191.531357 140.988388,191.047821 140.280197,190.369598 
z"/>
<path fill="#8B3A92" opacity="1.000000" stroke="none" 
	d="
M97.259399,109.003448 
	C96.535164,99.547089 100.924316,92.713707 110.296104,90.148773 
	C116.148895,88.546944 122.294090,87.280113 128.324310,87.207275 
	C142.408661,87.037155 156.531204,87.241661 170.582275,88.155472 
	C178.918518,88.697624 185.505737,93.113342 188.481384,101.675446 
	C186.818542,101.306282 185.467377,100.614731 183.926941,99.636810 
	C181.674988,95.472031 178.740295,93.140266 173.809677,93.643364 
	C170.366989,92.582733 167.179123,91.775291 163.613052,90.897560 
	C159.449677,90.869125 155.663300,90.864563 151.879532,90.961273 
	C138.775665,91.296173 125.642357,90.103760 112.611290,93.286049 
	C108.295410,94.340027 107.266144,96.873192 105.536743,99.963272 
	C104.121140,100.977592 103.074593,101.987442 101.779114,103.209366 
	C101.017273,104.607338 100.504372,105.793221 99.972778,107.304939 
	C99.949471,108.065094 99.944870,108.499420 99.605186,108.946365 
	C98.599876,108.973808 97.929634,108.988632 97.259399,109.003448 
z"/>
<path fill="#EF8C50" opacity="1.000000" stroke="none" 
	d="
M150.008484,182.810486 
	C143.978607,182.850052 137.948730,182.889618 131.293045,182.510864 
	C127.281891,181.727615 123.865067,180.881638 120.517944,181.100723 
	C114.107048,181.520309 109.247375,178.244965 104.338951,175.072708 
	C103.163284,174.312881 102.700935,172.449356 102.292984,171.004349 
	C106.315338,170.044968 110.754425,166.281830 111.618904,172.288635 
	C115.947906,172.827087 119.708626,172.879135 123.230705,173.822342 
	C129.887238,175.604980 136.406586,177.899857 143.396820,179.987656 
	C145.870132,180.297897 147.929565,180.602356 149.987396,181.224152 
	C149.993332,181.964478 150.000916,182.387482 150.008484,182.810486 
M109.497520,174.530884 
	C109.497520,174.530884 109.478935,174.485458 109.497520,174.530884 
z"/>
<path fill="#BE408D" opacity="1.000000" stroke="none" 
	d="
M184.116226,99.923187 
	C185.467377,100.614731 186.818542,101.306282 188.501282,102.028610 
	C188.832855,102.059387 188.947601,102.472740 189.075180,102.904068 
	C189.372391,103.605804 189.584274,103.837578 189.838409,104.030724 
	C190.203003,119.704338 190.567612,135.377960 190.647705,151.508850 
	C190.363205,151.966110 189.936432,151.956467 189.956497,151.533142 
	C189.967072,149.408569 189.957596,147.707306 189.969437,145.542450 
	C189.997162,143.266876 190.241638,141.416412 189.956284,139.651611 
	C189.483749,136.729279 188.669983,133.862152 188.001740,130.525299 
	C187.673080,126.359505 187.003876,122.631500 187.098679,118.923019 
	C187.215225,114.363373 185.048553,112.349174 180.834106,111.507553 
	C180.182938,109.753723 179.569626,108.322136 178.985092,106.579124 
	C179.068176,105.855316 179.122498,105.442917 179.431000,104.985443 
	C180.121765,104.298828 180.558350,103.657303 181.056335,102.680275 
	C182.117249,101.537575 183.116730,100.730385 184.116226,99.923187 
z"/>
<path fill="#D15261" opacity="1.000000" stroke="none" 
	d="
M189.936432,151.956467 
	C189.936432,151.956467 190.363205,151.966110 190.576584,151.971161 
	C190.835144,152.757034 190.880325,153.537857 190.677917,154.946899 
	C190.543579,156.697632 190.656799,157.820160 190.770020,158.942688 
	C189.972153,165.795380 190.265549,173.303665 183.143463,177.274231 
	C178.809830,179.690247 174.067841,182.013184 169.256332,182.770248 
	C163.282745,183.710159 157.047775,182.988800 150.467102,182.897736 
	C150.000916,182.387482 149.993332,181.964478 150.328796,181.246155 
	C151.126663,180.931580 151.581482,180.912308 152.476318,180.929138 
	C155.283005,180.938370 157.649689,180.911514 160.470032,180.909729 
	C165.410416,180.498672 170.476410,182.665619 174.395721,177.999786 
	C176.862030,176.335007 178.958786,174.689514 181.257828,172.841614 
	C181.655762,172.109833 181.851425,171.580460 182.365936,170.947235 
	C183.800095,167.910614 184.915390,164.977829 186.383423,161.902634 
	C187.160614,160.087418 187.499359,158.386642 188.033539,156.749664 
	C188.565781,155.118622 189.294098,153.551575 189.936432,151.956467 
z"/>
<path fill="#C46A55" opacity="1.000000" stroke="none" 
	d="
M97.161079,164.077881 
	C96.427704,162.450165 95.081696,160.830643 95.059860,159.193436 
	C94.912407,148.140900 95.045364,137.084656 95.344452,125.768219 
	C96.388420,125.988472 97.175507,126.470116 98.098801,127.160538 
	C98.439224,127.634285 98.682793,127.856010 98.960144,128.367126 
	C98.968353,129.143463 98.982140,129.587189 98.984413,130.449905 
	C98.958427,133.924591 98.943954,136.980270 98.923508,140.461426 
	C98.932304,142.588943 98.947067,144.290955 98.950256,146.430878 
	C98.948708,148.912735 98.958717,150.956665 98.956741,153.428467 
	C98.943939,155.567810 98.943130,157.279282 98.929779,159.389343 
	C99.237541,161.538422 99.557838,163.288910 99.889488,165.350540 
	C99.907906,166.077103 99.914963,166.492508 99.600571,166.928375 
	C98.849785,166.977127 98.420433,167.005432 97.986526,166.714813 
	C97.708344,165.623215 97.434708,164.850555 97.161079,164.077881 
z"/>
<path fill="#D99868" opacity="1.000000" stroke="none" 
	d="
M97.105164,164.489548 
	C97.434708,164.850555 97.708344,165.623215 98.037270,167.023651 
	C98.721764,168.437073 99.350960,169.222748 99.987732,170.004761 
	C99.995300,170.001114 99.991913,170.014374 100.117722,170.218201 
	C100.446198,170.676987 100.694748,170.874100 101.219574,171.032852 
	C101.449951,171.052353 101.910522,171.093445 101.910522,171.093445 
	C102.700935,172.449356 103.163284,174.312881 104.338951,175.072708 
	C109.247375,178.244965 114.107048,181.520309 120.517944,181.100723 
	C123.865067,180.881638 127.281891,181.727615 130.829224,182.438354 
	C124.287476,182.527313 117.488174,182.881638 110.905151,181.852509 
	C103.378845,180.675919 97.037994,172.192581 97.105164,164.489548 
z"/>
<path fill="#B8437E" opacity="1.000000" stroke="none" 
	d="
M97.962585,126.951759 
	C97.175507,126.470116 96.388420,125.988472 95.436554,125.315636 
	C95.897476,120.023460 96.523186,114.922485 97.204147,109.412476 
	C97.929634,108.988632 98.599876,108.973808 99.738197,109.302628 
	C102.125885,110.112030 104.045479,110.577797 105.892464,111.397865 
	C104.832664,112.484718 103.893883,113.757019 102.849419,113.850693 
	C99.438728,114.156563 98.840599,116.200653 98.974197,119.301468 
	C98.944504,120.735268 98.964287,121.860405 98.929924,123.257484 
	C98.571381,124.670212 98.266983,125.810982 97.962585,126.951759 
z"/>
<path fill="#BE408D" opacity="1.000000" stroke="none" 
	d="
M190.848251,158.562073 
	C190.656799,157.820160 190.543579,156.697632 190.603088,155.331909 
	C190.826065,156.119629 190.876282,157.150543 190.848251,158.562073 
z"/>
<path fill="#8B3A92" opacity="1.000000" stroke="none" 
	d="
M189.860886,103.763641 
	C189.584274,103.837578 189.372391,103.605804 189.121155,103.113571 
	C189.320816,103.093353 189.602097,103.294960 189.860886,103.763641 
z"/>
<path fill="#AA37AE" opacity="1.000000" stroke="none" 
	d="
M105.905807,99.958794 
	C107.266144,96.873192 108.295410,94.340027 112.611290,93.286049 
	C125.642357,90.103760 138.775665,91.296173 151.879532,90.961273 
	C155.663300,90.864563 159.449677,90.869125 163.616180,91.298325 
	C163.879898,93.294952 163.762253,94.820503 163.576172,97.233833 
	C158.233780,92.881798 153.154678,93.455284 147.546783,94.997986 
	C143.734161,95.667076 140.367294,96.336395 136.601471,97.006622 
	C135.138733,97.010002 134.074905,97.012474 132.612595,97.010803 
	C130.140518,98.000870 128.066956,98.995071 125.549789,99.990067 
	C122.738419,99.995224 120.370644,99.999596 117.649887,99.936028 
	C113.473183,96.547012 109.703842,100.054855 105.905807,99.958794 
z"/>
<path fill="#C03B96" opacity="1.000000" stroke="none" 
	d="
M105.965080,111.043564 
	C104.045479,110.577797 102.125885,110.112030 100.073273,109.290009 
	C99.944870,108.499420 99.949471,108.065094 100.392723,107.311165 
	C104.899017,106.815742 109.619392,107.902412 112.900757,106.205841 
	C120.116096,102.475296 127.492287,102.961891 135.386780,102.998329 
	C137.841812,103.656120 139.913116,104.310448 141.670822,105.218460 
	C138.242966,105.675522 135.128677,105.878906 131.617645,106.071449 
	C126.833633,107.693726 122.446373,109.326836 117.648140,110.967285 
	C116.141151,110.968445 115.045143,110.962257 113.906738,110.703354 
	C113.260818,110.301308 112.657295,110.151985 111.649170,110.002945 
	C109.484734,110.349998 107.724907,110.696785 105.965080,111.043564 
z"/>
<path fill="#BD36A8" opacity="1.000000" stroke="none" 
	d="
M147.992523,94.998215 
	C153.154678,93.455284 158.233780,92.881798 163.576172,97.233833 
	C163.762253,94.820503 163.879898,93.294952 163.994385,91.368622 
	C167.179123,91.775291 170.366989,92.582733 173.821594,93.953133 
	C173.443512,95.201561 172.894165,96.029007 172.132736,96.541061 
	C170.810089,97.430511 169.356354,98.125038 167.678406,98.978920 
	C166.926987,99.372963 166.454758,99.689392 165.667725,100.144463 
	C164.243347,100.520821 163.133743,100.758537 161.731339,100.765274 
	C159.667725,100.610786 157.890274,100.820648 156.127655,100.732880 
	C153.414322,100.597755 150.711182,100.258446 147.993103,99.675613 
	C147.655197,98.563637 147.327896,97.781815 147.119736,96.747314 
	C147.490082,95.995819 147.741302,95.497017 147.992523,94.998215 
z"/>
<path fill="#B839A0" opacity="1.000000" stroke="none" 
	d="
M147.000610,97.000000 
	C147.327896,97.781815 147.655197,98.563637 147.548538,99.675049 
	C143.077408,101.001389 139.040207,101.998123 135.003021,102.994858 
	C127.492287,102.961891 120.116096,102.475296 112.900757,106.205841 
	C109.619392,107.902412 104.899017,106.815742 100.411423,106.985336 
	C100.504372,105.793221 101.017273,104.607338 102.209885,103.210060 
	C104.992836,103.181694 107.220970,103.890022 109.170502,103.426537 
	C112.213837,102.702995 115.068359,101.185234 118.002884,100.003967 
	C120.370644,99.999596 122.738419,99.995224 125.947876,99.993469 
	C128.863403,99.002373 130.937256,98.008659 133.011093,97.014946 
	C134.074905,97.012474 135.138733,97.010002 136.907990,97.241325 
	C140.742477,97.316750 143.871552,97.158379 147.000610,97.000000 
z"/>
<path fill="#B138A7" opacity="1.000000" stroke="none" 
	d="
M167.957581,98.901306 
	C169.356354,98.125038 170.810089,97.430511 172.132736,96.541061 
	C172.894165,96.029007 173.443512,95.201561 174.076416,94.206322 
	C178.740295,93.140266 181.674988,95.472031 183.926941,99.636810 
	C183.116730,100.730385 182.117249,101.537575 180.717438,102.676033 
	C179.865036,103.013519 179.412949,103.019745 178.980438,103.012802 
	C179.000000,102.999619 178.971695,103.037254 178.988892,102.644165 
	C179.146210,99.266464 177.263733,98.834007 174.662262,98.985893 
	C173.617233,98.993073 172.815704,99.015907 171.610031,99.016357 
	C170.123108,98.963074 169.040344,98.932190 167.957581,98.901306 
z"/>
<path fill="#B138A7" opacity="1.000000" stroke="none" 
	d="
M117.649887,99.936035 
	C115.068359,101.185234 112.213837,102.702995 109.170502,103.426537 
	C107.220970,103.890022 104.992836,103.181694 102.458832,102.997986 
	C103.074593,101.987442 104.121140,100.977592 105.536743,99.963272 
	C109.703842,100.054855 113.473183,96.547012 117.649887,99.936035 
z"/>
<path fill="#FA7444" opacity="1.000000" stroke="none" 
	d="
M99.878128,165.039398 
	C99.557838,163.288910 99.237541,161.538422 99.376503,159.392242 
	C102.105713,159.226837 104.447090,159.924988 106.630997,159.591614 
	C111.414948,158.861328 116.635460,161.952667 121.350960,158.067398 
	C125.791389,160.428940 129.904266,162.701584 134.031830,165.326294 
	C134.758194,169.693726 138.672226,167.998474 140.447006,169.299301 
	C144.802704,172.491806 148.233459,176.946259 152.036316,180.893036 
	C151.581482,180.912308 151.126663,180.931580 150.330414,180.928833 
	C147.929565,180.602356 145.870132,180.297897 143.340210,179.648529 
	C140.295074,177.074158 137.965805,174.445114 135.102081,172.686340 
	C124.299606,166.051804 112.483604,163.609558 99.878128,165.039398 
z"/>
<path fill="#FC8046" opacity="1.000000" stroke="none" 
	d="
M99.889488,165.350540 
	C112.483604,163.609558 124.299606,166.051804 135.102081,172.686340 
	C137.965805,174.445114 140.295074,177.074158 142.926331,179.642731 
	C136.406586,177.899857 129.887238,175.604980 123.230705,173.822342 
	C119.708626,172.879135 115.947906,172.827087 111.618904,172.288635 
	C110.754425,166.281830 106.315338,170.044968 102.292984,171.004349 
	C101.910522,171.093445 101.449951,171.052353 101.089119,170.832901 
	C100.524414,170.362640 100.278954,170.162949 99.991913,170.014374 
	C99.991913,170.014374 99.995300,170.001114 99.996140,169.617920 
	C99.971992,168.459137 99.947006,167.683533 99.922028,166.907928 
	C99.914963,166.492508 99.907906,166.077103 99.889488,165.350540 
z"/>
<path fill="#FC8046" opacity="1.000000" stroke="none" 
	d="
M109.488228,174.508179 
	C109.478935,174.485458 109.497520,174.530884 109.488228,174.508179 
z"/>
<path fill="#E04774" opacity="1.000000" stroke="none" 
	d="
M189.956497,151.533142 
	C189.294098,153.551575 188.565781,155.118622 188.033539,156.749664 
	C187.499359,158.386642 187.160614,160.087418 186.375702,161.479202 
	C185.796539,153.608765 184.651642,152.151031 177.970490,150.641617 
	C177.646347,149.558182 177.328522,148.796585 176.943054,147.687469 
	C175.578812,146.557724 174.282242,145.775513 172.989044,144.596405 
	C173.325500,142.126511 173.658600,140.053482 173.993088,137.553802 
	C174.038162,135.421143 174.081833,133.715118 174.458481,131.950623 
	C176.425354,132.496567 178.539459,132.650528 179.605881,133.787292 
	C183.251923,137.673859 186.529785,141.905838 189.948105,146.006042 
	C189.957596,147.707306 189.967072,149.408569 189.956497,151.533142 
z"/>
<path fill="#D6408C" opacity="1.000000" stroke="none" 
	d="
M180.871948,111.829788 
	C185.048553,112.349174 187.215225,114.363373 187.098679,118.923019 
	C187.003876,122.631500 187.673080,126.359505 187.710297,130.658554 
	C183.855713,129.044357 180.291382,126.855232 176.734146,124.654663 
	C174.793686,123.454262 172.865250,122.234459 170.656189,120.835281 
	C169.895386,119.448090 169.409775,118.249023 169.165527,116.780098 
	C169.606354,115.334541 169.805786,114.158844 170.444092,112.981949 
	C174.212631,112.597099 177.542282,112.213448 180.871948,111.829788 
z"/>
<path fill="#D3457D" opacity="1.000000" stroke="none" 
	d="
M170.931366,121.023407 
	C172.865250,122.234459 174.793686,123.454262 176.734146,124.654663 
	C180.291382,126.855232 183.855713,129.044357 187.708542,131.105011 
	C188.669983,133.862152 189.483749,136.729279 189.956284,139.651611 
	C190.241638,141.416412 189.997162,143.266876 189.969437,145.542450 
	C186.529785,141.905838 183.251923,137.673859 179.605881,133.787292 
	C178.539459,132.650528 176.425354,132.496567 174.245102,131.642242 
	C172.776291,127.936035 171.853836,124.479721 170.931366,121.023407 
z"/>
<path fill="#000000" opacity="1.000000" stroke="none" 
	d="
M172.014191,99.038742 
	C172.815704,99.015907 173.617233,98.993073 174.732269,99.319763 
	C176.354416,100.791939 177.663055,101.914597 178.971695,103.037254 
	C178.971695,103.037254 179.000000,102.999619 178.994812,103.349640 
	C179.052002,104.143288 179.114410,104.586906 179.176819,105.030525 
	C179.122498,105.442917 179.068176,105.855316 178.670410,106.732666 
	C176.406815,108.403908 174.537689,110.376839 172.546082,110.509392 
	C171.468552,110.581116 169.182327,107.482857 169.229004,105.866264 
	C169.295456,103.565529 171.006012,101.312279 172.014191,99.038742 
z"/>
<path fill="#A94182" opacity="1.000000" stroke="none" 
	d="
M171.610016,99.016357 
	C171.006012,101.312279 169.295456,103.565529 169.229004,105.866264 
	C169.182327,107.482857 171.468552,110.581116 172.546082,110.509392 
	C174.537689,110.376839 176.406815,108.403908 178.641632,107.044083 
	C179.569626,108.322136 180.182938,109.753723 180.834106,111.507553 
	C177.542282,112.213448 174.212631,112.597099 170.128113,112.970825 
	C168.951874,112.958344 168.530487,112.955811 168.035629,112.619019 
	C166.972885,110.516327 165.983612,108.747902 165.156677,106.624878 
	C165.540161,104.182144 165.761353,102.093987 165.982529,100.005829 
	C166.454758,99.689392 166.926987,99.372963 167.678406,98.978920 
	C169.040344,98.932190 170.123108,98.963074 171.610016,99.016357 
z"/>
<path fill="#A94182" opacity="1.000000" stroke="none" 
	d="
M179.431000,104.985443 
	C179.114410,104.586906 179.052002,104.143288 178.975235,103.362823 
	C179.412949,103.019745 179.865036,103.013519 180.656036,103.011536 
	C180.558350,103.657303 180.121765,104.298828 179.431000,104.985443 
z"/>
<path fill="#F65543" opacity="1.000000" stroke="none" 
	d="
M174.026184,178.019073 
	C170.476410,182.665619 165.410416,180.498672 160.446121,180.551300 
	C159.096649,178.431931 158.587234,176.331863 157.281281,175.032150 
	C154.044861,171.811188 150.444351,168.956070 147.252716,165.695862 
	C150.376419,164.323364 153.237518,163.208984 156.484238,162.067169 
	C157.903366,161.985504 158.936890,161.931274 160.221649,162.131363 
	C166.972412,164.948944 167.080994,173.781647 173.872543,176.118118 
	C174.113251,176.200943 173.983353,177.361053 174.026184,178.019073 
z"/>
<path fill="#ED4B63" opacity="1.000000" stroke="none" 
	d="
M172.985657,144.993286 
	C174.282242,145.775513 175.578812,146.557724 176.738251,147.903503 
	C177.059677,149.299164 177.518265,150.131302 177.976837,150.963440 
	C184.651642,152.151031 185.796539,153.608765 186.022949,161.621613 
	C184.915390,164.977829 183.800095,167.910614 182.335449,170.562439 
	C178.318405,164.503510 174.650726,158.725540 170.985168,152.565613 
	C171.653427,149.786880 172.319534,147.390076 172.985657,144.993286 
z"/>
<path fill="#F96740" opacity="1.000000" stroke="none" 
	d="
M146.990112,165.953964 
	C150.444351,168.956070 154.044861,171.811188 157.281281,175.032150 
	C158.587234,176.331863 159.096649,178.431931 159.992462,180.526215 
	C157.649689,180.911514 155.283005,180.938370 152.476318,180.929138 
	C148.233459,176.946259 144.802704,172.491806 140.447006,169.299301 
	C138.672226,167.998474 134.758194,169.693726 134.439117,165.329987 
	C138.884521,165.305756 142.937317,165.629852 146.990112,165.953964 
z"/>
<path fill="#F44E53" opacity="1.000000" stroke="none" 
	d="
M174.395721,177.999786 
	C173.983353,177.361053 174.113251,176.200943 173.872543,176.118118 
	C167.080994,173.781647 166.972412,164.948944 160.311615,161.816742 
	C162.426910,159.827591 164.703461,158.407349 167.273468,157.174347 
	C169.039810,160.238968 171.553146,163.049805 171.742493,166.009308 
	C172.028656,170.482224 174.032532,171.739624 177.834442,172.028992 
	C178.927567,172.112198 179.982895,172.691925 181.055542,173.044006 
	C178.958786,174.689514 176.862030,176.335007 174.395721,177.999786 
z"/>
<path fill="#F44D59" opacity="1.000000" stroke="none" 
	d="
M181.257828,172.841614 
	C179.982895,172.691925 178.927567,172.112198 177.834442,172.028992 
	C174.032532,171.739624 172.028656,170.482224 171.742493,166.009308 
	C171.553146,163.049805 169.039810,160.238968 167.333923,156.839630 
	C168.394958,155.194305 169.688995,154.070938 170.983032,152.947556 
	C174.650726,158.725540 178.318405,164.503510 182.016571,170.666290 
	C181.851425,171.580460 181.655762,172.109833 181.257828,172.841614 
z"/>
<path fill="#FB5642" opacity="1.000000" stroke="none" 
	d="
M98.968735,153.000610 
	C98.958717,150.956665 98.948708,148.912735 99.366554,146.431854 
	C104.212303,145.656265 108.630196,145.317612 113.266953,145.163513 
	C114.019928,145.894897 114.554024,146.441711 115.083130,147.347626 
	C115.732353,149.471100 116.386566,151.235474 116.611771,152.999695 
	C110.444740,152.999924 104.706734,153.000259 98.968735,153.000610 
z"/>
<path fill="#FB6842" opacity="1.000000" stroke="none" 
	d="
M98.956741,153.428467 
	C104.706734,153.000259 110.444740,152.999924 116.867233,153.122940 
	C118.056656,153.508972 118.561584,153.771637 119.185219,154.215683 
	C119.491203,154.624252 119.718468,154.799652 120.118149,155.220093 
	C120.508179,156.337448 120.765793,157.157990 121.023399,157.978516 
	C116.635460,161.952667 111.414948,158.861328 106.630997,159.591614 
	C104.447090,159.924988 102.105713,159.226837 99.389038,158.993652 
	C98.943130,157.279282 98.943939,155.567810 98.956741,153.428467 
z"/>
<path fill="#F5504B" opacity="1.000000" stroke="none" 
	d="
M113.048080,144.978943 
	C108.630196,145.317612 104.212303,145.656265 99.378128,145.993958 
	C98.947067,144.290955 98.932304,142.588943 99.167404,140.187408 
	C100.175049,137.387863 100.932823,135.287842 101.699394,133.163422 
	C105.814697,134.931946 109.390312,136.468521 112.979492,138.441162 
	C113.011398,140.911118 113.029739,142.945023 113.048080,144.978943 
z"/>
<path fill="#F2514F" opacity="1.000000" stroke="none" 
	d="
M112.965912,138.005112 
	C109.390312,136.468521 105.814697,134.931946 101.699394,133.163422 
	C100.932823,135.287842 100.175049,137.387863 99.173386,139.761917 
	C98.943954,136.980270 98.958427,133.924591 99.442184,130.440933 
	C104.273087,129.679169 108.634712,129.345383 112.997528,129.460342 
	C112.987778,132.607758 112.976845,135.306442 112.965912,138.005112 
z"/>
<path fill="#ED4D5D" opacity="1.000000" stroke="none" 
	d="
M112.996338,129.011597 
	C108.634712,129.345383 104.273087,129.679169 99.453690,130.021927 
	C98.982140,129.587189 98.968353,129.143463 99.220703,128.128677 
	C103.551224,123.427177 109.636826,122.308701 113.031837,125.460289 
	C113.019531,126.905563 113.007935,127.958580 112.996338,129.011597 
z"/>
<path fill="#E94A65" opacity="1.000000" stroke="none" 
	d="
M113.032539,125.068039 
	C109.636826,122.308701 103.551224,123.427177 99.226273,127.796051 
	C98.682793,127.856010 98.439224,127.634285 98.098801,127.160538 
	C98.266983,125.810982 98.571381,124.670212 99.270287,123.104164 
	C104.962891,120.586899 110.295685,118.833580 116.023521,121.329414 
	C116.002121,122.092407 115.987488,122.528282 115.816750,123.239792 
	C114.784615,124.032967 113.908577,124.550499 113.032539,125.068039 
z"/>
<path fill="#EF8C50" opacity="1.000000" stroke="none" 
	d="
M99.600578,166.928375 
	C99.947006,167.683533 99.971992,168.459137 99.988564,169.621582 
	C99.350960,169.222748 98.721764,168.437073 98.041824,167.342590 
	C98.420433,167.005432 98.849785,166.977127 99.600578,166.928375 
z"/>
<path fill="#EF8C50" opacity="1.000000" stroke="none" 
	d="
M100.117722,170.218201 
	C100.278954,170.162949 100.524414,170.362640 100.858742,170.813400 
	C100.694748,170.874100 100.446198,170.676987 100.117722,170.218201 
z"/>
<path fill="#D43E82" opacity="1.000000" stroke="none" 
	d="
M113.949127,110.956070 
	C115.045143,110.962257 116.141151,110.968445 117.973221,111.084251 
	C120.899994,113.405899 120.284103,115.293434 117.659164,116.836166 
	C110.780914,114.188812 105.088928,118.063759 99.023682,118.992790 
	C98.840599,116.200653 99.438728,114.156563 102.849419,113.850693 
	C103.893883,113.757019 104.832664,112.484718 105.892464,111.397873 
	C107.724907,110.696785 109.484734,110.349998 111.833115,110.206558 
	C112.930817,110.591957 113.439972,110.774017 113.949127,110.956070 
z"/>
<path fill="#E04774" opacity="1.000000" stroke="none" 
	d="
M98.974197,119.301468 
	C105.088928,118.063759 110.780914,114.188812 117.601883,117.161850 
	C117.292953,118.763397 116.661613,119.882843 116.030273,121.002296 
	C110.295685,118.833580 104.962891,120.586899 99.324432,122.832214 
	C98.964287,121.860405 98.944504,120.735268 98.974197,119.301468 
z"/>
<path fill="#B138A7" opacity="1.000000" stroke="none" 
	d="
M147.119736,96.747314 
	C143.871552,97.158379 140.742477,97.316750 137.306915,97.240417 
	C140.367294,96.336395 143.734161,95.667076 147.546783,94.997986 
	C147.741302,95.497017 147.490082,95.995819 147.119736,96.747314 
z"/>
<path fill="#B138A7" opacity="1.000000" stroke="none" 
	d="
M132.612595,97.010803 
	C130.937256,98.008659 128.863403,99.002373 126.391479,99.992683 
	C128.066956,98.995071 130.140518,98.000870 132.612595,97.010803 
z"/>
<path fill="#AC4775" opacity="1.000000" stroke="none" 
	d="
M170.656189,120.835281 
	C171.853836,124.479721 172.776291,127.936035 173.912125,131.700714 
	C174.081833,133.715118 174.038162,135.421143 173.728363,137.724075 
	C172.368393,139.222137 171.274551,140.123306 170.121674,140.636810 
	C170.705017,138.627975 172.149200,136.832001 171.840973,135.418015 
	C170.877151,130.996414 169.923935,126.333626 167.715500,122.481590 
	C164.838791,117.463943 160.528290,113.768448 155.170731,110.705177 
	C144.758545,104.751839 128.656097,108.296402 122.107147,117.687790 
	C123.743317,114.868065 125.228218,112.281090 127.128387,110.047363 
	C128.464447,108.476753 130.365585,107.386841 132.014404,106.082291 
	C135.128677,105.878906 138.242966,105.675522 142.116486,105.223495 
	C145.247330,104.974091 147.618927,104.973335 150.355804,104.992668 
	C152.113815,105.353928 153.506561,105.695107 155.118362,106.252510 
	C155.914795,106.656357 156.492188,106.843994 157.272003,107.034668 
	C157.474442,107.037704 157.879059,107.021690 157.991272,107.346863 
	C160.395599,109.450768 162.687714,111.229500 165.039932,113.342239 
	C166.374725,114.800819 167.649445,115.925385 168.924149,117.049957 
	C169.409775,118.249023 169.895386,119.448090 170.656189,120.835281 
z"/>
<path fill="#CA3AA2" opacity="1.000000" stroke="none" 
	d="
M149.990524,104.972595 
	C147.618927,104.973335 145.247330,104.974091 142.430069,104.969803 
	C139.913116,104.310448 137.841812,103.656120 135.386780,102.998329 
	C139.040207,101.998123 143.077408,101.001389 147.559143,100.005211 
	C150.711182,100.258446 153.414322,100.597755 156.127655,100.732880 
	C157.890274,100.820648 159.667725,100.610786 161.533508,101.065857 
	C159.071060,102.225471 156.498825,102.800171 153.962143,103.503120 
	C152.606628,103.878746 151.312408,104.475586 149.990524,104.972595 
z"/>
<path fill="#B8437E" opacity="1.000000" stroke="none" 
	d="
M131.617645,106.071457 
	C130.365585,107.386841 128.464447,108.476753 127.128387,110.047363 
	C125.228218,112.281090 123.743317,114.868065 122.086632,117.695847 
	C122.092262,118.087563 122.079269,118.047997 121.863579,118.178955 
	C121.447319,118.575562 121.246750,118.841202 121.013458,119.446632 
	C120.000107,120.867111 119.019478,121.947792 117.694695,123.017975 
	C116.891312,122.993034 116.432076,122.978600 115.972847,122.964157 
	C115.987488,122.528282 116.002121,122.092407 116.023514,121.329414 
	C116.661613,119.882843 117.292953,118.763397 117.981575,117.318275 
	C120.284103,115.293434 120.899994,113.405899 118.384193,111.076912 
	C122.446373,109.326836 126.833633,107.693726 131.617645,106.071457 
z"/>
<path fill="#B8437E" opacity="1.000000" stroke="none" 
	d="
M113.906738,110.703354 
	C113.439972,110.774017 112.930817,110.591957 112.237717,110.206284 
	C112.657295,110.151985 113.260818,110.301308 113.906738,110.703354 
z"/>
<path fill="#C03B96" opacity="1.000000" stroke="none" 
	d="
M150.355804,104.992676 
	C151.312408,104.475586 152.606628,103.878746 153.962143,103.503120 
	C156.498825,102.800171 159.071060,102.225471 161.826324,101.296844 
	C163.133743,100.758537 164.243347,100.520821 165.667725,100.144470 
	C165.761353,102.093987 165.540161,104.182144 164.913040,106.430389 
	C162.297745,106.734222 160.088409,106.877953 157.879059,107.021683 
	C157.879059,107.021690 157.474442,107.037704 157.051941,106.817551 
	C156.052734,106.410362 155.476028,106.223320 154.899307,106.036285 
	C153.506561,105.695107 152.113815,105.353928 150.355804,104.992676 
z"/>
<path fill="#A94182" opacity="1.000000" stroke="none" 
	d="
M178.988892,102.644165 
	C177.663055,101.914597 176.354416,100.791939 174.975769,99.335419 
	C177.263733,98.834007 179.146210,99.266464 178.988892,102.644165 
z"/>
<path fill="#D96950" opacity="1.000000" stroke="none" 
	d="
M119.066521,154.034302 
	C118.561584,153.771637 118.056656,153.508972 117.296257,153.123077 
	C116.386566,151.235474 115.732353,149.471100 115.460487,147.348816 
	C116.602379,146.981842 117.361916,146.972794 118.426849,147.146118 
	C121.795746,157.353683 129.707443,160.926422 139.062103,162.031204 
	C143.666718,162.574997 148.398514,162.041794 153.450256,162.001389 
	C154.584702,162.036087 155.341660,162.065353 156.098633,162.094620 
	C153.237518,163.208984 150.376419,164.323364 147.252716,165.695862 
	C142.937317,165.629852 138.884521,165.305756 134.424438,164.977936 
	C129.904266,162.701584 125.791389,160.428940 121.350960,158.067398 
	C120.765793,157.157990 120.508179,156.337448 119.989075,155.048676 
	C119.537979,154.361160 119.317627,154.179123 119.066521,154.034302 
z"/>
<path fill="#D15261" opacity="1.000000" stroke="none" 
	d="
M156.484238,162.067169 
	C155.341660,162.065353 154.584702,162.036087 153.478577,161.629089 
	C154.318390,160.545914 155.525925,159.869812 156.693237,159.130188 
	C163.498154,154.818558 168.828293,149.401016 170.180710,141.024475 
	C171.274551,140.123306 172.368393,139.222137 173.726959,138.150726 
	C173.658600,140.053482 173.325500,142.126511 172.989044,144.596405 
	C172.319534,147.390076 171.653427,149.786880 170.985168,152.565613 
	C169.688995,154.070938 168.394958,155.194305 167.040466,156.652405 
	C164.703461,158.407349 162.426910,159.827591 160.060379,161.562439 
	C158.936890,161.931274 157.903366,161.985504 156.484238,162.067169 
z"/>
<path fill="#D15261" opacity="1.000000" stroke="none" 
	d="
M177.970505,150.641617 
	C177.518265,150.131302 177.059677,149.299164 176.805908,148.251007 
	C177.328522,148.796585 177.646347,149.558182 177.970505,150.641617 
z"/>
<path fill="#D3457D" opacity="1.000000" stroke="none" 
	d="
M169.165527,116.780098 
	C167.649445,115.925385 166.374725,114.800819 165.430267,113.338135 
	C166.543381,112.984436 167.326248,112.968857 168.109116,112.953270 
	C168.530487,112.955811 168.951874,112.958344 169.689240,112.972015 
	C169.805786,114.158844 169.606354,115.334541 169.165527,116.780098 
z"/>
<path fill="#D6408C" opacity="1.000000" stroke="none" 
	d="
M168.035629,112.619019 
	C167.326248,112.968857 166.543381,112.984436 165.370178,113.004128 
	C162.687714,111.229500 160.395599,109.450768 157.991272,107.346863 
	C160.088409,106.877953 162.297745,106.734222 164.750732,106.784973 
	C165.983612,108.747902 166.972885,110.516327 168.035629,112.619019 
z"/>
<path fill="#D05C57" opacity="1.000000" stroke="none" 
	d="
M118.121460,146.963745 
	C117.361916,146.972794 116.602379,146.981842 115.465469,146.989716 
	C114.554024,146.441711 114.019928,145.894897 113.266953,145.163513 
	C113.029739,142.945023 113.011398,140.911118 112.979485,138.441162 
	C112.976845,135.306442 112.987778,132.607758 112.997528,129.460342 
	C113.007935,127.958580 113.019531,126.905563 113.031837,125.460297 
	C113.908577,124.550499 114.784615,124.032967 115.816750,123.239792 
	C116.432076,122.978600 116.891312,122.993034 117.661858,123.423859 
	C115.212952,131.566086 114.926788,139.276077 118.121460,146.963745 
z"/>
<path fill="#D05C57" opacity="1.000000" stroke="none" 
	d="
M119.185219,154.215683 
	C119.317627,154.179123 119.537979,154.361160 119.856644,154.751831 
	C119.718468,154.799652 119.491203,154.624252 119.185219,154.215683 
z"/>
<path fill="#000000" opacity="1.000000" stroke="none" 
	d="
M118.426849,147.146118 
	C114.926788,139.276077 115.212952,131.566086 118.006012,123.434357 
	C119.019478,121.947792 120.000107,120.867111 121.257462,119.351250 
	C121.715881,118.626717 121.897575,118.337357 122.079269,118.047997 
	C122.079269,118.047997 122.092262,118.087563 122.112778,118.079514 
	C128.656097,108.296402 144.758545,104.751839 155.170731,110.705177 
	C160.528290,113.768448 164.838791,117.463943 167.715500,122.481590 
	C169.923935,126.333626 170.877151,130.996414 171.840973,135.418015 
	C172.149200,136.832001 170.705017,138.627975 170.121674,140.636810 
	C168.828293,149.401016 163.498154,154.818558 156.693237,159.130188 
	C155.525925,159.869812 154.318390,160.545914 153.101105,161.623657 
	C148.398514,162.041794 143.666718,162.574997 139.062103,162.031204 
	C129.707443,160.926422 121.795746,157.353683 118.426849,147.146118 
M152.719696,153.747772 
	C152.719696,153.747772 152.846405,153.456650 153.414322,153.126907 
	C158.126404,151.336502 160.420990,147.453979 162.805847,142.534805 
	C162.292191,136.736694 163.211716,130.292831 160.953415,125.280807 
	C156.813507,116.092796 148.011353,113.961792 138.487595,115.093712 
	C133.180405,115.724480 126.728851,121.635368 126.043228,126.744324 
	C125.752380,127.833672 125.461533,128.923019 124.759903,130.754349 
	C122.896271,137.761337 123.102898,144.716858 128.731918,149.740921 
	C134.345306,154.751038 141.001877,158.198532 149.652634,154.909622 
	C150.575043,154.557129 151.497437,154.204636 152.719696,153.747772 
z"/>
<path fill="#D6408C" opacity="1.000000" stroke="none" 
	d="
M155.118362,106.252502 
	C155.476028,106.223320 156.052734,106.410362 156.849518,106.814514 
	C156.492188,106.843994 155.914795,106.656357 155.118362,106.252502 
z"/>
<path fill="#AC4775" opacity="1.000000" stroke="none" 
	d="
M121.863579,118.178955 
	C121.897575,118.337357 121.715881,118.626717 121.290184,119.011459 
	C121.246750,118.841202 121.447319,118.575562 121.863579,118.178955 
z"/>
<path fill="#E94A65" opacity="1.000000" stroke="none" 
	d="
M125.170685,130.012360 
	C125.461533,128.923019 125.752380,127.833672 126.455902,126.338654 
	C130.243271,123.628265 133.617966,121.323555 137.019989,119.391190 
	C139.463821,121.343719 141.697479,123.410301 144.335251,124.401825 
	C149.666534,126.405861 153.372192,132.331924 160.296783,131.251892 
	C160.657944,132.997253 160.795013,134.454819 160.622986,136.040909 
	C160.112244,137.320404 160.035736,138.512390 159.675491,139.611389 
	C159.276169,140.829620 158.617615,141.962875 158.083374,142.804184 
	C157.190262,140.707321 156.743210,138.158066 155.298706,137.312241 
	C150.154953,134.300308 144.882416,131.174881 139.242706,129.461334 
	C135.520767,128.330475 130.810013,125.269203 126.686996,130.012787 
	C125.979378,130.012909 125.575035,130.012634 125.170685,130.012360 
z"/>
<path fill="#B14A65" opacity="1.000000" stroke="none" 
	d="
M136.992661,119.018845 
	C133.617966,121.323555 130.243271,123.628265 126.535995,125.990982 
	C126.728851,121.635368 133.180405,115.724480 138.487595,115.093712 
	C148.011353,113.961792 156.813507,116.092796 160.953415,125.280807 
	C163.211716,130.292831 162.292191,136.736694 162.208771,142.492874 
	C161.385147,140.271423 161.158615,138.091919 160.932083,135.912399 
	C160.795013,134.454819 160.657944,132.997253 160.263580,130.881607 
	C157.858170,127.291824 156.050766,124.011971 153.488098,121.503799 
	C148.743088,116.859680 142.855804,117.483574 136.992661,119.018845 
z"/>
<path fill="#D05C57" opacity="1.000000" stroke="none" 
	d="
M124.965294,130.383362 
	C125.575035,130.012634 125.979378,130.012909 126.686501,130.386734 
	C126.992546,131.508896 126.995811,132.257492 126.992134,133.455627 
	C127.016106,136.604645 127.047028,139.304138 127.225311,142.301117 
	C131.925781,150.814774 138.623535,154.336014 148.332123,151.967285 
	C149.784225,151.613129 150.893646,151.307938 152.084808,151.430679 
	C152.393173,152.391296 152.619781,152.923981 152.846405,153.456650 
	C152.846405,153.456650 152.719696,153.747772 152.250488,153.615967 
	C150.861160,153.919724 149.941071,154.355286 149.020966,154.790833 
	C141.001877,158.198532 134.345306,154.751038 128.731918,149.740921 
	C123.102898,144.716858 122.896271,137.761337 124.965294,130.383362 
z"/>
<path fill="#BE5169" opacity="1.000000" stroke="none" 
	d="
M153.130371,153.291779 
	C152.619781,152.923981 152.393173,152.391296 152.239944,151.157639 
	C153.210526,149.302490 154.107712,148.148331 155.088379,146.690826 
	C156.138580,145.302704 157.105270,144.217926 158.071945,143.133133 
	C158.617615,141.962875 159.276169,140.829620 159.675491,139.611389 
	C160.035736,138.512390 160.112244,137.320404 160.622986,136.040909 
	C161.158615,138.091919 161.385147,140.271423 161.868561,142.755875 
	C160.420990,147.453979 158.126404,151.336502 153.130371,153.291779 
z"/>
<path fill="#BE5169" opacity="1.000000" stroke="none" 
	d="
M149.336792,154.850220 
	C149.941071,154.355286 150.861160,153.919724 152.100555,153.668152 
	C151.497437,154.204636 150.575043,154.557129 149.336792,154.850220 
z"/>
<path fill="#F24C5E" opacity="1.000000" stroke="none" 
	d="
M158.083374,142.804184 
	C157.105270,144.217926 156.138580,145.302704 154.752106,146.582062 
	C153.512360,145.075485 152.692398,143.374329 152.087952,142.120239 
	C143.437378,138.977707 135.218231,135.991913 126.999084,133.006104 
	C126.995811,132.257492 126.992546,131.508896 126.989777,130.386353 
	C130.810013,125.269203 135.520767,128.330475 139.242706,129.461334 
	C144.882416,131.174881 150.154953,134.300308 155.298706,137.312241 
	C156.743210,138.158066 157.190262,140.707321 158.083374,142.804184 
z"/>
<path fill="#E34870" opacity="1.000000" stroke="none" 
	d="
M137.019989,119.391197 
	C142.855804,117.483574 148.743088,116.859680 153.488098,121.503799 
	C156.050766,124.011971 157.858170,127.291824 160.039505,130.593811 
	C153.372192,132.331924 149.666534,126.405861 144.335251,124.401825 
	C141.697479,123.410301 139.463821,121.343719 137.019989,119.391197 
z"/>
<path fill="#F44E53" opacity="1.000000" stroke="none" 
	d="
M126.992134,133.455627 
	C135.218231,135.991913 143.437378,138.977707 152.087952,142.120239 
	C152.692398,143.374329 153.512360,145.075485 154.668610,146.885406 
	C154.107712,148.148331 153.210526,149.302490 152.158203,150.729691 
	C150.893646,151.307938 149.784225,151.613129 148.404907,151.602631 
	C148.551270,149.476868 148.967529,147.666794 149.383789,145.856705 
	C147.325821,145.634933 145.247650,145.130508 143.215897,145.275726 
	C141.403275,145.405273 139.641983,146.252792 137.598129,146.860794 
	C137.147354,144.365829 136.808884,142.492416 136.415436,140.314835 
	C133.135300,140.908081 130.106628,141.455856 127.077950,142.003616 
	C127.047028,139.304138 127.016106,136.604645 126.992134,133.455627 
z"/>
<path fill="#F2524C" opacity="1.000000" stroke="none" 
	d="
M127.225311,142.301117 
	C130.106628,141.455856 133.135300,140.908081 136.415436,140.314835 
	C136.808884,142.492416 137.147354,144.365829 137.598129,146.860794 
	C139.641983,146.252792 141.403275,145.405273 143.215897,145.275726 
	C145.247650,145.130508 147.325821,145.634933 149.383789,145.856705 
	C148.967529,147.666794 148.551270,149.476868 148.062225,151.651611 
	C138.623535,154.336014 131.925781,150.814774 127.225311,142.301117 
z"/>
</svg>