<svg version="1.1" id="Layer_1" xmlns="http://www.w3.org/2000/svg" xmlns:xlink="http://www.w3.org/1999/xlink" x="0px" y="0px"
	 width="100%" viewBox="0 0 225 225" enable-background="new 0 0 225 225" xml:space="preserve">
<path fill="#191414" opacity="1.000000" stroke="none" 
	d="
M226.000000,2.000000 
	C226.000000,76.020897 226.000000,150.041794 225.531342,224.534149 
	C150.375122,225.003723 75.687561,225.001862 1.000000,225.000000 
	C1.000000,150.979111 1.000000,76.958206 1.468333,2.449549 
	C76.624443,1.974522 151.312225,1.987261 226.000000,2.000000 
M161.170319,41.302551 
	C105.663780,6.461952 35.309395,38.863567 27.726328,103.474060 
	C21.782076,154.121262 57.385998,194.952805 109.247116,200.629669 
	C116.110626,201.380966 123.451675,199.703735 130.326065,198.099319 
	C167.390518,189.448898 191.095993,166.440613 198.169800,129.160156 
	C205.055740,92.869759 191.575729,63.513844 161.170319,41.302551 
z"/>
<path fill="#5B5858" opacity="1.000000" stroke="none" 
	d="
M226.000000,1.500000 
	C151.312225,1.987261 76.624443,1.974522 1.468333,1.980891 
	C2.500000,1.666667 3.999812,1.042680 5.500027,1.041707 
	C78.999992,0.994067 152.500000,1.000000 226.000000,1.500000 
z"/>
<path fill="#393535" opacity="1.000000" stroke="none" 
	d="
M1.000000,225.500000 
	C75.687561,225.001862 150.375122,225.003723 225.531342,225.002808 
	C224.504044,225.333328 223.008286,225.957321 221.512115,225.958298 
	C148.008102,226.005920 74.504051,226.000000 1.000000,225.500000 
z"/>
<path fill="#1ED55F" opacity="1.000000" stroke="none" 
	d="
M161.460312,41.517960 
	C191.575729,63.513844 205.055740,92.869759 198.169800,129.160156 
	C191.095993,166.440613 167.390518,189.448898 130.326065,198.099319 
	C123.451675,199.703735 116.110626,201.380966 109.247116,200.629669 
	C57.385998,194.952805 21.782076,154.121262 27.726328,103.474060 
	C35.309395,38.863567 105.663780,6.461952 161.460312,41.517960 
M167.803284,104.603035 
	C174.553513,103.892662 177.680817,100.532707 175.888962,94.546082 
	C175.123138,91.987495 172.199005,89.530991 169.649277,88.137741 
	C151.939667,78.460648 132.722656,74.128174 112.706902,74.168983 
	C102.223381,74.190361 91.716454,71.941025 81.162964,74.780998 
	C74.865791,76.475586 68.110252,76.392334 61.696732,77.750420 
	C55.550598,79.051880 52.872299,83.150269 54.083683,87.937172 
	C55.288254,92.697159 59.681881,94.646759 65.716805,93.095222 
	C87.381737,87.525322 109.160164,87.802109 131.052322,91.628777 
	C143.808594,93.858536 155.587341,98.689476 167.803284,104.603035 
M95.522560,103.757187 
	C85.723885,103.230080 76.059441,103.805267 66.614128,106.808533 
	C61.156067,108.543999 58.919720,111.278435 59.971996,115.547920 
	C60.979012,119.633743 64.555595,121.062599 70.142441,119.677376 
	C99.126945,112.490906 126.916588,115.329117 153.333969,129.627563 
	C154.064941,130.023209 154.772339,130.512985 155.553818,130.755951 
	C158.780365,131.759171 161.620377,131.059631 163.382767,128.107559 
	C165.211838,125.043785 164.871811,121.941238 162.052567,119.584061 
	C160.412918,118.213142 158.475616,117.144394 156.554550,116.172211 
	C137.658020,106.609283 117.824432,101.515442 95.522560,103.757187 
M150.006516,153.879135 
	C155.063492,150.296783 155.227097,146.569321 149.965210,143.653595 
	C144.759857,140.769196 139.402740,137.671631 133.716568,136.250336 
	C123.949242,133.808975 113.929482,131.923416 103.909462,131.104828 
	C97.081367,130.546982 90.072083,132.200378 83.144379,132.870926 
	C78.417152,133.328461 73.666603,133.629105 68.971985,134.312500 
	C65.256523,134.853348 62.603237,136.928711 63.564842,141.095657 
	C64.467773,145.008362 67.547295,145.488312 71.050697,144.795959 
	C75.284157,143.959351 79.520073,143.083435 83.793053,142.507309 
	C104.906067,139.660690 125.223495,141.737747 144.144897,152.414093 
	C145.661194,153.269669 147.529831,153.500839 150.006516,153.879135 
z"/>
<path fill="#191515" opacity="1.000000" stroke="none" 
	d="
M167.428345,104.534286 
	C155.587341,98.689476 143.808594,93.858536 131.052322,91.628777 
	C109.160164,87.802109 87.381737,87.525322 65.716805,93.095222 
	C59.681881,94.646759 55.288254,92.697159 54.083683,87.937172 
	C52.872299,83.150269 55.550598,79.051880 61.696732,77.750420 
	C68.110252,76.392334 74.865791,76.475586 81.162964,74.780998 
	C91.716454,71.941025 102.223381,74.190361 112.706902,74.168983 
	C132.722656,74.128174 151.939667,78.460648 169.649277,88.137741 
	C172.199005,89.530991 175.123138,91.987495 175.888962,94.546082 
	C177.680817,100.532707 174.553513,103.892662 167.428345,104.534286 
z"/>
<path fill="#191514" opacity="1.000000" stroke="none" 
	d="
M96.002487,103.753555 
	C117.824432,101.515442 137.658020,106.609283 156.554550,116.172211 
	C158.475616,117.144394 160.412918,118.213142 162.052567,119.584061 
	C164.871811,121.941238 165.211838,125.043785 163.382767,128.107559 
	C161.620377,131.059631 158.780365,131.759171 155.553818,130.755951 
	C154.772339,130.512985 154.064941,130.023209 153.333969,129.627563 
	C126.916588,115.329117 99.126945,112.490906 70.142441,119.677376 
	C64.555595,121.062599 60.979012,119.633743 59.971996,115.547920 
	C58.919720,111.278435 61.156067,108.543999 66.614128,106.808533 
	C76.059441,103.805267 85.723885,103.230080 96.002487,103.753555 
z"/>
<path fill="#191615" opacity="1.000000" stroke="none" 
	d="
M149.620621,153.950653 
	C147.529831,153.500839 145.661194,153.269669 144.144897,152.414093 
	C125.223495,141.737747 104.906067,139.660690 83.793053,142.507309 
	C79.520073,143.083435 75.284157,143.959351 71.050697,144.795959 
	C67.547295,145.488312 64.467773,145.008362 63.564842,141.095657 
	C62.603237,136.928711 65.256523,134.853348 68.971985,134.312500 
	C73.666603,133.629105 78.417152,133.328461 83.144379,132.870926 
	C90.072083,132.200378 97.081367,130.546982 103.909462,131.104828 
	C113.929482,131.923416 123.949242,133.808975 133.716568,136.250336 
	C139.402740,137.671631 144.759857,140.769196 149.965210,143.653595 
	C155.227097,146.569321 155.063492,150.296783 149.620621,153.950653 
z"/>
</svg>