<svg version="1.1" id="Layer_1" xmlns="http://www.w3.org/2000/svg" xmlns:xlink="http://www.w3.org/1999/xlink" x="0px" y="0px"
	 width="100%" viewBox="0 0 225 225" enable-background="new 0 0 225 225" xml:space="preserve">
<path fill="#000000" opacity="1.000000" stroke="none" 
	d="
M145.000000,226.000000 
	C96.666672,226.000000 48.833340,226.000000 1.000006,226.000000 
	C1.000004,151.000000 1.000004,76.000015 1.000002,1.000016 
	C75.999992,1.000011 150.999985,1.000011 225.999969,1.000005 
	C225.999985,75.999985 225.999985,150.999969 226.000000,225.999969 
	C199.166672,226.000000 172.333328,226.000000 145.000000,226.000000 
M155.501099,170.856903 
	C162.385757,170.856903 169.270432,170.856903 177.172668,170.856903 
	C160.055054,148.199203 143.655685,126.492203 127.239159,104.762489 
	C141.335846,88.627983 155.180756,72.781639 169.717804,56.143108 
	C166.361298,56.143108 164.053238,56.441898 161.849045,56.090023 
	C153.484802,54.754765 147.690659,57.867928 142.498688,64.636780 
	C135.054840,74.341454 126.506065,83.198608 118.147820,92.738564 
	C109.421753,81.230766 101.036903,70.113983 92.554924,59.071827 
	C91.635445,57.874813 90.167557,56.290714 88.931206,56.270313 
	C76.381088,56.063187 63.826221,56.143837 50.303703,56.143837 
	C66.695854,77.602013 82.463028,98.242073 98.217239,118.865150 
	C83.115387,136.151169 68.328354,153.076828 52.794868,170.856918 
	C58.459431,170.856918 62.769127,170.595459 67.031128,170.934189 
	C70.898026,171.241516 73.400795,169.830780 75.882759,166.920242 
	C86.224930,154.792328 96.816589,142.877136 107.379723,130.811996 
	C110.939461,135.460785 114.271454,139.820251 117.612358,144.172882 
	C121.055099,148.658203 125.181335,152.775162 127.816795,157.692062 
	C133.707886,168.682861 142.267548,173.233170 155.501099,170.856903 
z"/>
<path fill="#F9F9F9" opacity="1.000000" stroke="none" 
	d="
M155.001740,170.856903 
	C142.267548,173.233170 133.707886,168.682861 127.816795,157.692062 
	C125.181335,152.775162 121.055099,148.658203 117.612358,144.172882 
	C114.271454,139.820251 110.939461,135.460785 107.379723,130.811996 
	C96.816589,142.877136 86.224930,154.792328 75.882759,166.920242 
	C73.400795,169.830780 70.898026,171.241516 67.031128,170.934189 
	C62.769127,170.595459 58.459431,170.856918 52.794868,170.856918 
	C68.328354,153.076828 83.115387,136.151169 98.217239,118.865150 
	C82.463028,98.242073 66.695854,77.602013 50.303703,56.143837 
	C63.826221,56.143837 76.381088,56.063187 88.931206,56.270313 
	C90.167557,56.290714 91.635445,57.874813 92.554924,59.071827 
	C101.036903,70.113983 109.421753,81.230766 118.147820,92.738564 
	C126.506065,83.198608 135.054840,74.341454 142.498688,64.636780 
	C147.690659,57.867928 153.484802,54.754765 161.849045,56.090023 
	C164.053238,56.441898 166.361298,56.143108 169.717804,56.143108 
	C155.180756,72.781639 141.335846,88.627983 127.239159,104.762489 
	C143.655685,126.492203 160.055054,148.199203 177.172668,170.856903 
	C169.270432,170.856903 162.385757,170.856903 155.001740,170.856903 
M88.228271,72.214363 
	C85.161087,65.395401 79.338585,67.861450 73.547203,67.609497 
	C74.422821,68.838966 74.855316,69.485229 75.326378,70.102028 
	C96.633232,98.001030 118.141953,125.749893 139.083145,153.920654 
	C143.192734,159.448975 147.559998,159.366196 153.738449,158.738159 
	C131.774307,129.710312 110.233665,101.242142 88.228271,72.214363 
z"/>
<path fill="#050505" opacity="1.000000" stroke="none" 
	d="
M88.460648,72.494171 
	C110.233665,101.242142 131.774307,129.710312 153.738449,158.738159 
	C147.559998,159.366196 143.192734,159.448975 139.083145,153.920654 
	C118.141953,125.749893 96.633232,98.001030 75.326378,70.102028 
	C74.855316,69.485229 74.422821,68.838966 73.547203,67.609497 
	C79.338585,67.861450 85.161087,65.395401 88.460648,72.494171 
z"/>
</svg>