<svg version="1.1" id="Layer_1" xmlns="http://www.w3.org/2000/svg" xmlns:xlink="http://www.w3.org/1999/xlink" x="0px" y="0px"
	 width="100%" viewBox="0 0 347 145" enable-background="new 0 0 347 145" xml:space="preserve">
<path fill="#FDFDFD" opacity="1.000000" stroke="none" 
	d="
M348.000000,95.000000 
	C348.000000,111.990120 348.000000,128.980240 348.000000,145.977753 
	C232.410446,145.985168 116.820877,145.985168 1.115660,145.985168 
	C1.115660,97.772110 1.115660,49.543854 1.115660,1.000000 
	C70.687241,1.000000 140.374969,1.000000 210.522156,1.212142 
	C210.981628,1.424285 210.913132,1.843409 210.452728,1.884141 
	C196.627701,2.919186 183.276657,4.395948 169.894638,4.773015 
	C156.334320,5.155106 148.190277,12.986697 145.822739,23.982824 
	C143.981415,32.534943 143.338959,41.345188 142.098282,50.269539 
	C142.032898,50.498367 142.127274,50.964897 142.041519,51.399326 
	C141.981705,53.893066 142.007645,55.952377 141.949524,58.473083 
	C141.919327,68.619377 141.973206,78.304268 141.938141,88.422707 
	C141.941879,90.914536 142.034592,92.972832 142.079910,95.264114 
	C142.032516,95.497101 142.160492,95.955078 142.098083,96.384010 
	C143.008499,104.554710 143.499527,112.395493 145.065689,120.015305 
	C147.485901,131.790176 154.690002,139.394409 166.787598,141.674881 
	C170.530563,142.380463 174.357117,142.839493 178.161804,142.986481 
	C193.960220,143.596893 209.761963,144.296310 225.568130,144.481003 
	C241.027252,144.661636 256.493225,144.256653 272.399353,144.178360 
	C275.226898,144.161697 277.611359,144.075409 280.439575,144.080475 
	C283.597046,144.077881 286.310730,143.983978 289.261017,143.940262 
	C289.497650,143.990448 289.966125,143.869476 290.423126,143.935791 
	C298.837585,143.636887 306.801758,143.379562 314.751129,142.884644 
	C332.897552,141.754868 341.265961,134.686737 344.872559,115.843964 
	C346.176910,109.029381 346.417175,102.011124 347.357788,95.069893 
	C347.572601,95.053978 348.000000,95.000000 348.000000,95.000000 
M122.563339,117.329224 
	C125.198723,117.329224 127.834114,117.329224 130.546631,117.329224 
	C130.546631,94.118286 130.546631,71.256401 130.546631,48.423729 
	C126.224365,48.423729 122.281555,48.423729 117.927315,48.423729 
	C117.927315,56.253365 117.927399,63.879135 117.927299,71.504906 
	C117.927177,80.671402 117.990219,89.838547 117.894836,99.004059 
	C117.857841,102.558807 113.348602,107.389809 110.362122,106.976791 
	C105.774681,106.342354 107.379974,102.501167 107.343124,99.883896 
	C107.183594,88.553017 107.274780,77.218620 107.274780,65.885498 
	C107.274780,60.113129 107.274780,54.340759 107.274780,48.416893 
	C102.768494,48.416893 98.845314,48.416893 94.825859,48.416893 
	C94.825859,68.565659 94.497673,88.519432 94.968246,108.454361 
	C95.193932,118.014725 103.185928,121.370079 111.210838,115.910271 
	C113.454704,114.383644 115.413589,112.438156 117.549271,110.646164 
	C118.836769,113.239624 115.656242,118.067284 122.563339,117.329224 
M5.860260,36.701412 
	C7.725052,42.705822 9.483254,48.745857 11.475929,54.707520 
	C16.214113,68.883186 20.781925,83.014160 19.254995,98.369766 
	C18.639069,104.563866 19.153479,110.870369 19.153479,117.137299 
	C24.060215,117.137299 28.331392,117.137299 33.002811,117.137299 
	C33.002811,107.340057 32.693855,97.707893 33.119473,88.108284 
	C33.372047,82.411568 34.201508,76.598129 35.783188,71.129776 
	C40.226669,55.767284 45.194580,40.556480 49.953480,25.292885 
	C45.013554,25.292885 40.426296,25.292885 35.695442,25.292885 
	C32.591892,36.911232 29.550699,48.296135 26.509506,59.681034 
	C23.712358,52.439934 21.785347,45.149315 19.861078,37.857971 
	C16.335396,24.498631 16.336069,24.498453 2.110260,25.164152 
	C3.287996,28.804277 4.443277,32.375000 5.860260,36.701412 
M47.599945,82.511276 
	C47.714973,89.000626 47.502056,95.516327 48.021118,101.973198 
	C48.819920,111.909889 56.728085,118.852524 66.381004,118.653633 
	C76.086700,118.453644 83.605919,111.847939 84.008247,101.917130 
	C84.512589,89.468536 84.523445,76.965088 83.974632,64.519386 
	C83.510696,53.998413 76.347214,47.879021 66.024635,47.886532 
	C55.676819,47.894062 48.903618,53.991055 48.024902,64.557487 
	C47.556862,70.185623 47.721127,75.866348 47.599945,82.511276 
z"/>
<path fill="#FDF6F6" opacity="1.000000" stroke="none" 
	d="
M276.000000,1.000000 
	C299.915009,1.000000 323.830048,1.000000 348.000000,1.000000 
	C348.000000,18.020046 348.000000,35.041363 347.687561,52.459450 
	C347.203522,52.251842 347.031860,51.647472 346.929077,50.614006 
	C346.339081,43.573681 345.916595,36.928349 344.968567,30.358852 
	C343.366333,19.256266 338.234283,9.849954 327.399750,6.072917 
	C320.239349,3.576724 312.103699,3.764529 304.376251,3.064803 
	C301.322052,2.788243 298.177765,3.636569 295.097290,3.490879 
	C289.710571,3.236116 284.341461,2.608942 278.733093,2.082870 
	C278.501251,2.027926 278.034363,2.123304 277.716003,2.040353 
	C276.960541,1.924069 276.523438,1.890737 276.047272,1.644809 
	C276.008240,1.432214 276.000000,1.000000 276.000000,1.000000 
z"/>
<path fill="#CA0101" opacity="1.000000" stroke="none" 
	d="
M275.533875,1.000000 
	C276.000000,1.000000 276.008240,1.432214 275.770691,1.972385 
	C274.899963,2.671301 274.267029,2.967854 273.633606,2.968784 
	C253.918442,2.997741 234.203171,3.017975 214.488205,2.952745 
	C213.295303,2.948799 212.104767,2.229730 210.913132,1.843410 
	C210.913132,1.843409 210.981628,1.424285 210.990814,1.212142 
	C216.354935,1.000000 221.709854,1.000000 227.730804,1.388239 
	C238.607346,1.854519 248.817841,1.951459 259.028473,1.966612 
	C259.685181,1.967587 260.342804,1.336860 261.000000,0.999997 
	C265.689240,1.000000 270.378510,1.000000 275.533875,1.000000 
z"/>
<path fill="#CA0000" opacity="1.000000" stroke="none" 
	d="
M346.860229,51.043102 
	C347.031860,51.647472 347.203522,52.251842 347.687561,52.928108 
	C348.000000,55.370556 348.000000,57.741116 347.618500,60.763260 
	C347.159088,66.158745 346.942383,70.905861 347.052429,75.645393 
	C347.124939,78.769249 347.667755,81.882179 348.000000,85.000000 
	C348.000000,88.030594 348.000000,91.061188 348.000000,94.545891 
	C348.000000,95.000000 347.572601,95.053978 347.030975,94.792519 
	C346.412537,80.294800 346.332550,66.058556 346.284119,51.822201 
	C346.283234,51.563156 346.659760,51.302830 346.860229,51.043102 
z"/>
<path fill="#EAB2B2" opacity="1.000000" stroke="none" 
	d="
M260.531342,0.999997 
	C260.342804,1.336860 259.685181,1.967587 259.028473,1.966612 
	C248.817841,1.951459 238.607346,1.854519 228.198395,1.388239 
	C238.687561,1.000000 249.375122,1.000000 260.531342,0.999997 
z"/>
<path fill="#E9AAAA" opacity="1.000000" stroke="none" 
	d="
M348.000000,84.531364 
	C347.667755,81.882179 347.124939,78.769249 347.052429,75.645393 
	C346.942383,70.905861 347.159088,66.158745 347.618500,61.207420 
	C348.000000,68.687576 348.000000,76.375153 348.000000,84.531364 
z"/>
<path fill="#CD2221" opacity="1.000000" stroke="none" 
	d="
M346.929047,50.614006 
	C346.659760,51.302830 346.283234,51.563156 346.284119,51.822201 
	C346.332550,66.058556 346.412537,80.294800 346.816162,94.808434 
	C346.417175,102.011124 346.176910,109.029381 344.872559,115.843964 
	C341.265961,134.686737 332.897552,141.754868 314.751129,142.884644 
	C306.801758,143.379562 298.837585,143.636887 290.338898,143.778992 
	C289.539917,143.667282 289.282135,143.778671 289.024384,143.890076 
	C286.310730,143.983978 283.597046,144.077881 280.176208,143.789276 
	C276.964752,143.640762 274.460480,143.874741 271.956207,144.108734 
	C256.493225,144.256653 241.027252,144.661636 225.568130,144.481003 
	C209.761963,144.296310 193.960220,143.596893 178.161804,142.986481 
	C174.357117,142.839493 170.530563,142.380463 166.787598,141.674881 
	C154.690002,139.394409 147.485901,131.790176 145.065689,120.015305 
	C143.499527,112.395493 143.008499,104.554710 142.248077,96.297142 
	C142.349411,95.531265 142.238358,95.281189 142.127304,95.031120 
	C142.034592,92.972832 141.941879,90.914536 142.236389,88.131241 
	C142.749878,80.316650 142.976456,73.226715 142.951447,66.137657 
	C142.941879,63.427952 142.356522,60.720284 142.033585,58.011688 
	C142.007645,55.952377 141.981705,53.893066 142.198425,51.326134 
	C142.499741,50.720020 142.631744,50.571888 142.604462,50.531593 
	C142.482315,50.351181 142.314804,50.201488 142.163666,50.040707 
	C143.338959,41.345188 143.981415,32.534943 145.822739,23.982824 
	C148.190277,12.986697 156.334320,5.155106 169.894638,4.773015 
	C183.276657,4.395948 196.627701,2.919186 210.452728,1.884142 
	C212.104767,2.229730 213.295303,2.948799 214.488205,2.952745 
	C234.203171,3.017975 253.918442,2.997741 273.633606,2.968784 
	C274.267029,2.967854 274.899963,2.671301 275.809723,2.184979 
	C276.523438,1.890737 276.960541,1.924069 277.792603,2.198771 
	C278.446686,2.339366 278.705811,2.238592 278.964966,2.137816 
	C284.341461,2.608942 289.710571,3.236116 295.097290,3.490879 
	C298.177765,3.636569 301.322052,2.788243 304.376251,3.064803 
	C312.103699,3.764529 320.239349,3.576724 327.399750,6.072917 
	C338.234283,9.849954 343.366333,19.256266 344.968567,30.358852 
	C345.916595,36.928349 346.339081,43.573681 346.929047,50.614006 
M159.865768,24.857227 
	C159.606827,25.013275 159.347885,25.169321 158.685104,26.007933 
	C158.685104,30.551655 158.685104,35.095379 158.685104,39.949539 
	C163.682465,39.949539 168.119766,39.949539 173.156769,39.949539 
	C173.156769,66.275185 173.156769,92.275490 173.156769,119.485329 
	C178.282852,118.565018 182.638840,117.782967 187.328934,116.828262 
	C187.405823,116.730995 187.566147,116.574112 187.546127,116.546082 
	C187.409912,116.355461 187.235733,116.191978 186.887848,115.096001 
	C186.949829,90.059395 187.011810,65.022781 187.990768,40.011795 
	C192.326569,39.675755 196.662384,39.339710 201.679169,38.487286 
	C201.679169,34.269066 201.679169,30.050846 201.679169,25.532099 
	C199.347885,25.532099 197.371201,25.545589 195.394730,25.529884 
	C183.619736,25.436316 171.844803,25.336004 159.865768,24.857227 
M291.465210,67.503952 
	C291.337799,77.825447 291.194763,88.146843 291.128113,98.468727 
	C291.124695,98.996178 291.777161,99.527870 292.540894,100.669914 
	C292.717316,101.648994 292.853149,102.637428 293.076355,103.605728 
	C295.506744,114.149445 307.427429,121.632317 317.263367,118.800293 
	C326.496765,116.141762 332.139130,104.492775 329.456238,93.702095 
	C325.383606,93.702095 321.332550,93.702095 317.018311,93.702095 
	C317.018311,96.400620 317.322754,98.771919 316.941803,101.027473 
	C316.457642,103.894043 315.493591,106.823837 311.797333,106.991638 
	C308.125793,107.158310 306.125610,104.991737 305.965546,101.579399 
	C305.718475,96.312752 305.900452,91.025986 305.900452,85.229843 
	C314.006256,85.229843 321.911102,85.229843 329.823730,85.229843 
	C329.823730,77.769241 330.475861,70.755760 329.670074,63.913986 
	C328.478088,53.793282 321.143585,47.929646 311.267944,47.972900 
	C301.460541,48.015854 294.746643,53.951984 292.953796,64.121490 
	C292.784180,65.083649 292.397583,66.007561 291.465210,67.503952 
M237.148148,116.797737 
	C237.242615,116.702209 237.337097,116.606674 237.431564,116.511147 
	C237.245163,116.328743 237.058746,116.146339 236.622223,115.059120 
	C236.622223,93.154968 236.622223,71.250824 236.622223,48.996426 
	C232.407364,48.996426 228.768402,48.883862 225.147247,49.087811 
	C224.388550,49.130543 223.695496,50.339165 222.375992,51.593777 
	C222.263474,67.476433 222.141922,83.359055 222.074860,99.241898 
	C222.072433,99.815033 222.606705,100.390427 222.859695,101.652786 
	C221.355560,103.158844 220.010437,104.886345 218.304520,106.111435 
	C216.432281,107.455948 214.313446,107.983383 213.508896,104.723114 
	C213.508896,104.723114 213.533478,104.288116 213.533478,104.288116 
	C213.533478,104.288116 213.133270,104.032799 212.970490,103.103806 
	C212.970490,85.188339 212.970490,67.272865 212.970490,49.315277 
	C208.368881,49.315277 204.309479,49.315277 200.039368,49.315277 
	C200.039368,69.047813 200.023422,88.490379 200.075226,107.932762 
	C200.078690,109.228783 200.502106,110.552452 200.890945,111.813690 
	C202.571655,117.264984 206.915741,119.918968 212.195969,117.968903 
	C215.905182,116.599014 219.205368,114.121574 223.388870,111.739799 
	C221.994919,117.306709 224.078568,119.551796 229.159058,118.649269 
	C231.714508,118.195290 234.229630,117.514397 237.148148,116.797737 
M262.257935,51.019650 
	C261.284973,50.960873 260.311981,50.902092 259.157837,49.943501 
	C259.157837,41.985592 259.157837,34.027687 259.157837,25.978539 
	C254.816895,25.978539 250.947937,25.978539 247.381958,25.978539 
	C247.381958,57.064404 247.381958,87.768539 247.381958,118.719406 
	C249.739365,118.608231 251.563400,118.658035 253.343185,118.401123 
	C255.227982,118.129051 257.070709,117.565308 259.026123,117.106842 
	C259.112274,115.206093 259.189636,113.498772 259.281982,111.461266 
	C261.633118,113.403748 263.308624,115.599991 265.508087,116.466949 
	C275.957153,120.585609 280.222107,118.276657 284.337280,106.786552 
	C284.230438,106.192970 284.123566,105.599388 283.874298,104.077057 
	C283.911713,90.052498 283.949127,76.027946 284.332245,61.806614 
	C284.189209,61.527519 284.046143,61.248425 283.482849,60.363586 
	C281.347839,49.030373 277.225830,47.336243 270.410400,48.129005 
	C267.935638,48.416866 265.618103,50.056850 262.257935,51.019650 
M261.414032,143.459610 
	C261.414032,143.459610 261.523926,143.401215 261.414032,143.459610 
z"/>
<path fill="#060606" opacity="1.000000" stroke="none" 
	d="
M122.082321,117.329285 
	C115.656242,118.067284 118.836769,113.239624 117.549271,110.646164 
	C115.413589,112.438156 113.454704,114.383644 111.210838,115.910271 
	C103.185928,121.370079 95.193932,118.014725 94.968246,108.454361 
	C94.497673,88.519432 94.825859,68.565659 94.825859,48.416893 
	C98.845314,48.416893 102.768494,48.416893 107.274780,48.416893 
	C107.274780,54.340759 107.274780,60.113129 107.274780,65.885498 
	C107.274780,77.218620 107.183594,88.553017 107.343124,99.883896 
	C107.379974,102.501167 105.774681,106.342354 110.362122,106.976791 
	C113.348602,107.389809 117.857841,102.558807 117.894836,99.004059 
	C117.990219,89.838547 117.927177,80.671402 117.927299,71.504906 
	C117.927399,63.879135 117.927315,56.253365 117.927315,48.423729 
	C122.281555,48.423729 126.224365,48.423729 130.546631,48.423729 
	C130.546631,71.256401 130.546631,94.118286 130.546631,117.329224 
	C127.834114,117.329224 125.198723,117.329224 122.082321,117.329285 
z"/>
<path fill="#040404" opacity="1.000000" stroke="none" 
	d="
M5.729410,36.323570 
	C4.443277,32.375000 3.287996,28.804277 2.110260,25.164152 
	C16.336069,24.498453 16.335396,24.498631 19.861078,37.857971 
	C21.785347,45.149315 23.712358,52.439934 26.509506,59.681034 
	C29.550699,48.296135 32.591892,36.911232 35.695442,25.292885 
	C40.426296,25.292885 45.013554,25.292885 49.953480,25.292885 
	C45.194580,40.556480 40.226669,55.767284 35.783188,71.129776 
	C34.201508,76.598129 33.372047,82.411568 33.119473,88.108284 
	C32.693855,97.707893 33.002811,107.340057 33.002811,117.137299 
	C28.331392,117.137299 24.060215,117.137299 19.153479,117.137299 
	C19.153479,110.870369 18.639069,104.563866 19.254995,98.369766 
	C20.781925,83.014160 16.214113,68.883186 11.475929,54.707520 
	C9.483254,48.745857 7.725052,42.705822 5.729410,36.323570 
z"/>
<path fill="#040404" opacity="1.000000" stroke="none" 
	d="
M47.599968,82.017303 
	C47.721127,75.866348 47.556862,70.185623 48.024902,64.557487 
	C48.903618,53.991055 55.676819,47.894062 66.024635,47.886532 
	C76.347214,47.879021 83.510696,53.998413 83.974632,64.519386 
	C84.523445,76.965088 84.512589,89.468536 84.008247,101.917130 
	C83.605919,111.847939 76.086700,118.453644 66.381004,118.653633 
	C56.728085,118.852524 48.819920,111.909889 48.021118,101.973198 
	C47.502056,95.516327 47.714973,89.000626 47.599968,82.017303 
M71.836349,100.864021 
	C71.855774,89.563889 71.928963,78.263481 71.869644,66.963760 
	C71.843903,62.061562 69.452530,58.950348 65.944778,59.263481 
	C61.513145,59.659084 60.299286,63.000214 60.257454,66.717758 
	C60.134060,77.682579 60.112919,88.651108 60.271847,99.614998 
	C60.320297,102.957527 60.918438,106.467522 65.250191,107.103661 
	C69.306320,107.699310 70.826622,105.032623 71.836349,100.864021 
z"/>
<path fill="#CA0000" opacity="1.000000" stroke="none" 
	d="
M141.949524,58.473083 
	C142.356522,60.720284 142.941879,63.427952 142.951447,66.137657 
	C142.976456,73.226715 142.749878,80.316650 142.325333,87.697708 
	C141.973206,78.304268 141.919327,68.619377 141.949524,58.473083 
z"/>
<path fill="#CA0605" opacity="1.000000" stroke="none" 
	d="
M272.399353,144.178360 
	C274.460480,143.874741 276.964752,143.640762 279.732422,143.697952 
	C277.611359,144.075409 275.226898,144.161697 272.399353,144.178360 
z"/>
<path fill="#CA0605" opacity="1.000000" stroke="none" 
	d="
M289.261017,143.940247 
	C289.282135,143.778671 289.539917,143.667282 289.881897,143.712677 
	C289.966125,143.869476 289.497650,143.990448 289.261017,143.940247 
z"/>
<path fill="#CA0000" opacity="1.000000" stroke="none" 
	d="
M142.079910,95.264114 
	C142.238358,95.281189 142.349411,95.531265 142.310471,95.868210 
	C142.160492,95.955078 142.032516,95.497101 142.079910,95.264114 
z"/>
<path fill="#CA0000" opacity="1.000000" stroke="none" 
	d="
M142.098282,50.269539 
	C142.314804,50.201488 142.482315,50.351181 142.604462,50.531593 
	C142.631744,50.571888 142.499741,50.720020 142.284180,50.891701 
	C142.127274,50.964897 142.032898,50.498367 142.098282,50.269539 
z"/>
<path fill="#CA0101" opacity="1.000000" stroke="none" 
	d="
M278.733093,2.082872 
	C278.705811,2.238592 278.446686,2.339366 278.110962,2.281722 
	C278.034363,2.123304 278.501251,2.027926 278.733093,2.082872 
z"/>
<path fill="#FEFDFD" opacity="1.000000" stroke="none" 
	d="
M283.986542,62.003391 
	C283.949127,76.027946 283.911713,90.052498 283.849426,104.876877 
	C283.830719,106.139488 283.836853,106.602287 283.842987,107.065079 
	C280.222107,118.276657 275.957153,120.585609 265.508087,116.466949 
	C263.308624,115.599991 261.633118,113.403748 259.281982,111.461266 
	C259.189636,113.498772 259.112274,115.206093 259.026123,117.106842 
	C257.070709,117.565308 255.227982,118.129051 253.343185,118.401123 
	C251.563400,118.658035 249.739365,118.608231 247.381958,118.719406 
	C247.381958,87.768539 247.381958,57.064404 247.381958,25.978539 
	C250.947937,25.978539 254.816895,25.978539 259.157837,25.978539 
	C259.157837,34.027687 259.157837,41.985592 259.161438,50.698174 
	C259.220062,52.296124 259.275116,53.139400 259.264587,54.214214 
	C259.476440,54.301338 259.753845,54.156921 260.343140,53.942802 
	C261.512939,52.942036 262.370911,52.010967 263.228851,51.079903 
	C265.618103,50.056850 267.935638,48.416866 270.410400,48.129005 
	C277.225830,47.336243 281.347839,49.030373 283.649384,60.930168 
	C283.872803,61.665627 283.929688,61.834511 283.986542,62.003391 
M262.894592,60.232777 
	C261.640625,61.845116 259.342438,63.430141 259.299438,65.074158 
	C258.982147,77.207413 259.028046,89.353783 259.218231,101.491966 
	C259.241211,102.960434 260.456940,104.942436 261.719971,105.765282 
	C266.674530,108.993080 270.668121,106.503906 270.871185,99.599594 
	C271.198578,88.467079 270.972839,77.317566 270.916168,66.175568 
	C270.910370,65.039696 270.832001,63.554447 270.149841,62.840275 
	C268.415375,61.024471 267.049072,57.319050 262.894592,60.232777 
z"/>
<path fill="#FDF8F8" opacity="1.000000" stroke="none" 
	d="
M213.257019,104.934738 
	C214.313446,107.983383 216.432281,107.455948 218.304520,106.111435 
	C220.010437,104.886345 221.355560,103.158844 222.980255,100.852783 
	C223.057938,83.705360 223.015060,67.357948 222.972183,51.010529 
	C223.695496,50.339165 224.388550,49.130543 225.147247,49.087811 
	C228.768402,48.883862 232.407364,48.996426 236.622223,48.996426 
	C236.622223,71.250824 236.622223,93.154968 236.661652,115.748016 
	C236.721695,116.603310 236.742340,116.769722 236.763000,116.936127 
	C234.229630,117.514397 231.714508,118.195290 229.159058,118.649269 
	C224.078568,119.551796 221.994919,117.306709 223.388870,111.739799 
	C219.205368,114.121574 215.905182,116.599014 212.195969,117.968903 
	C206.915741,119.918968 202.571655,117.264984 200.890945,111.813690 
	C200.502106,110.552452 200.078690,109.228783 200.075226,107.932762 
	C200.023422,88.490379 200.039368,69.047813 200.039368,49.315277 
	C204.309479,49.315277 208.368881,49.315277 212.970490,49.315277 
	C212.970490,67.272865 212.970490,85.188339 213.010864,103.803665 
	C213.051224,104.503525 213.257019,104.934738 213.257019,104.934738 
z"/>
<path fill="#FEFAFA" opacity="1.000000" stroke="none" 
	d="
M292.111755,66.949234 
	C292.397583,66.007561 292.784180,65.083649 292.953796,64.121490 
	C294.746643,53.951984 301.460541,48.015854 311.267944,47.972900 
	C321.143585,47.929646 328.478088,53.793282 329.670074,63.913986 
	C330.475861,70.755760 329.823730,77.769241 329.823730,85.229843 
	C321.911102,85.229843 314.006256,85.229843 305.900452,85.229843 
	C305.900452,91.025986 305.718475,96.312752 305.965546,101.579399 
	C306.125610,104.991737 308.125793,107.158310 311.797333,106.991638 
	C315.493591,106.823837 316.457642,103.894043 316.941803,101.027473 
	C317.322754,98.771919 317.018311,96.400620 317.018311,93.702095 
	C321.332550,93.702095 325.383606,93.702095 329.456238,93.702095 
	C332.139130,104.492775 326.496765,116.141762 317.263367,118.800293 
	C307.427429,121.632317 295.506744,114.149445 293.076355,103.605728 
	C292.853149,102.637428 292.717316,101.648994 292.373535,99.892250 
	C292.174683,88.392799 292.143219,77.671021 292.111755,66.949234 
M305.590027,72.452103 
	C306.281982,73.298180 306.913025,74.803833 307.676605,74.874352 
	C310.722961,75.155678 313.810516,74.990349 316.987885,74.990349 
	C316.987885,71.187668 317.740601,67.787735 316.753479,65.004944 
	C315.940887,62.714157 313.335602,60.134613 311.036621,59.525391 
	C308.035553,58.730114 305.884857,61.089714 305.792450,64.542213 
	C305.730499,66.855461 305.654449,69.168343 305.590027,72.452103 
z"/>
<path fill="#FEFAFA" opacity="1.000000" stroke="none" 
	d="
M186.994827,117.000916 
	C182.638840,117.782967 178.282852,118.565018 173.156769,119.485329 
	C173.156769,92.275490 173.156769,66.275185 173.156769,39.949539 
	C168.119766,39.949539 163.682465,39.949539 158.685104,39.949539 
	C158.685104,35.095379 158.685104,30.551655 159.138000,25.709476 
	C159.750549,25.353334 159.910187,25.295647 160.069839,25.237957 
	C171.844803,25.336004 183.619736,25.436316 195.394730,25.529884 
	C197.371201,25.545589 199.347885,25.532099 201.679169,25.532099 
	C201.679169,30.050846 201.679169,34.269066 200.878891,38.679943 
	C195.743668,39.243793 191.408722,39.614986 187.073776,39.986176 
	C187.011810,65.022781 186.949829,90.059395 186.922195,115.800034 
	C186.956543,116.504074 186.994827,117.000916 186.994827,117.000916 
z"/>
<path fill="#CA0000" opacity="1.000000" stroke="none" 
	d="
M222.674088,51.302155 
	C223.015060,67.357948 223.057938,83.705360 222.995850,100.508774 
	C222.606705,100.390427 222.072433,99.815033 222.074860,99.241898 
	C222.141922,83.359055 222.263474,67.476433 222.674088,51.302155 
z"/>
<path fill="#CA0101" opacity="1.000000" stroke="none" 
	d="
M291.788483,67.226593 
	C292.143219,77.671021 292.174683,88.392799 292.165222,99.586090 
	C291.777161,99.527870 291.124695,98.996178 291.128113,98.468727 
	C291.194763,88.146843 291.337799,77.825447 291.788483,67.226593 
z"/>
<path fill="#CA0000" opacity="1.000000" stroke="none" 
	d="
M187.532272,39.998985 
	C191.408722,39.614986 195.743668,39.243793 200.538391,38.938133 
	C196.662384,39.339710 192.326569,39.675755 187.532272,39.998985 
z"/>
<path fill="#CC1817" opacity="1.000000" stroke="none" 
	d="
M262.743408,51.049774 
	C262.370911,52.010967 261.512939,52.942036 260.168274,53.925308 
	C259.681549,53.977516 259.330170,53.982674 259.330170,53.982674 
	C259.275116,53.139400 259.220062,52.296124 259.252014,51.148079 
	C260.311981,50.902092 261.284973,50.960873 262.743408,51.049774 
z"/>
<path fill="#CA0101" opacity="1.000000" stroke="none" 
	d="
M284.090149,106.925812 
	C283.836853,106.602287 283.830719,106.139488 283.920654,105.341248 
	C284.123566,105.599388 284.230438,106.192970 284.090149,106.925812 
z"/>
<path fill="#CB0B08" opacity="1.000000" stroke="none" 
	d="
M236.955566,116.866928 
	C236.742340,116.769722 236.721695,116.603310 236.786713,116.200424 
	C237.058746,116.146339 237.245163,116.328743 237.431564,116.511147 
	C237.337097,116.606674 237.242615,116.702209 236.955566,116.866928 
z"/>
<path fill="#CA0605" opacity="1.000000" stroke="none" 
	d="
M261.468994,143.430420 
	C261.523926,143.401215 261.414032,143.459610 261.468994,143.430420 
z"/>
<path fill="#CA0000" opacity="1.000000" stroke="none" 
	d="
M187.161880,116.914589 
	C186.994827,117.000916 186.956543,116.504074 187.015167,116.261902 
	C187.235733,116.191978 187.409912,116.355461 187.546127,116.546082 
	C187.566147,116.574112 187.405823,116.730995 187.161880,116.914589 
z"/>
<path fill="#CA0000" opacity="1.000000" stroke="none" 
	d="
M213.382965,104.828926 
	C213.257019,104.934738 213.051224,104.503525 213.092255,104.268158 
	C213.133270,104.032799 213.533478,104.288116 213.533478,104.288116 
	C213.533478,104.288116 213.508896,104.723114 213.382965,104.828926 
z"/>
<path fill="#CA0101" opacity="1.000000" stroke="none" 
	d="
M284.159393,61.905003 
	C283.929688,61.834511 283.872803,61.665627 283.859497,61.233040 
	C284.046143,61.248425 284.189209,61.527519 284.159393,61.905003 
z"/>
<path fill="#CB0F0D" opacity="1.000000" stroke="none" 
	d="
M159.967804,25.047592 
	C159.910187,25.295647 159.750549,25.353334 159.339920,25.368195 
	C159.347885,25.169321 159.606827,25.013275 159.967804,25.047592 
z"/>
<path fill="#F0F0F0" opacity="1.000000" stroke="none" 
	d="
M71.785324,101.294594 
	C70.826622,105.032623 69.306320,107.699310 65.250191,107.103661 
	C60.918438,106.467522 60.320297,102.957527 60.271847,99.614998 
	C60.112919,88.651108 60.134060,77.682579 60.257454,66.717758 
	C60.299286,63.000214 61.513145,59.659084 65.944778,59.263481 
	C69.452530,58.950348 71.843903,62.061562 71.869644,66.963760 
	C71.928963,78.263481 71.855774,89.563889 71.785324,101.294594 
z"/>
<path fill="#CE2424" opacity="1.000000" stroke="none" 
	d="
M263.201263,60.405876 
	C267.049072,57.319050 268.415375,61.024471 270.149841,62.840275 
	C270.832001,63.554447 270.910370,65.039696 270.916168,66.175568 
	C270.972839,77.317566 271.198578,88.467079 270.871185,99.599594 
	C270.668121,106.503906 266.674530,108.993080 261.719971,105.765282 
	C260.456940,104.942436 259.241211,102.960434 259.218231,101.491966 
	C259.028046,89.353783 258.982147,77.207413 259.299438,65.074158 
	C259.342438,63.430141 261.640625,61.845116 263.201263,60.405876 
z"/>
<path fill="#CD2221" opacity="1.000000" stroke="none" 
	d="
M259.264587,54.214214 
	C259.330170,53.982674 259.681549,53.977516 259.856384,53.995010 
	C259.753845,54.156921 259.476440,54.301338 259.264587,54.214214 
z"/>
<path fill="#CE2322" opacity="1.000000" stroke="none" 
	d="
M305.587341,71.966743 
	C305.654449,69.168343 305.730499,66.855461 305.792450,64.542213 
	C305.884857,61.089714 308.035553,58.730114 311.036621,59.525391 
	C313.335602,60.134613 315.940887,62.714157 316.753479,65.004944 
	C317.740601,67.787735 316.987885,71.187668 316.987885,74.990349 
	C313.810516,74.990349 310.722961,75.155678 307.676605,74.874352 
	C306.913025,74.803833 306.281982,73.298180 305.587341,71.966743 
z"/>
</svg>