<svg version="1.1" id="Layer_1" xmlns="http://www.w3.org/2000/svg" xmlns:xlink="http://www.w3.org/1999/xlink" x="0px" y="0px"
	 width="100%" viewBox="0 0 225 225" enable-background="new 0 0 225 225" xml:space="preserve">
<path fill="#10274D" opacity="1.000000" stroke="none" 
	d="
M149.000000,226.000000 
	C99.333336,226.000000 50.166672,226.000000 1.000007,226.000000 
	C1.000004,151.000000 1.000004,76.000015 1.000002,1.000017 
	C75.999992,1.000011 150.999985,1.000011 225.999969,1.000006 
	C225.999985,75.999985 225.999985,150.999969 226.000000,225.999969 
	C200.500000,226.000000 175.000000,226.000000 149.000000,226.000000 
M76.196632,61.215324 
	C73.955482,61.551899 71.714340,61.888474 68.600433,62.152222 
	C67.437912,62.230064 66.275383,62.307907 64.264099,62.208828 
	C61.953705,62.467442 59.633488,62.659134 57.334682,62.996666 
	C49.007534,64.219315 42.709568,69.583916 41.267372,77.863228 
	C38.436604,94.114014 37.442387,110.506088 39.133926,127.831802 
	C39.216080,129.540115 39.298237,131.248444 39.192043,133.721390 
	C39.517464,135.480103 39.842888,137.238800 40.119774,139.663376 
	C40.189713,140.101456 40.259651,140.539520 40.156841,141.771027 
	C40.852837,144.641968 41.548836,147.512909 42.284149,150.957794 
	C42.448975,151.299438 42.613804,151.641068 42.714043,152.632050 
	C43.057880,153.160812 43.401718,153.689560 43.819134,154.238922 
	C43.819134,154.238922 43.766441,154.183762 43.899784,154.862488 
	C48.386272,162.743073 56.066341,164.025970 64.945656,164.777893 
	C67.303040,164.805191 69.660431,164.832489 72.770721,165.186478 
	C83.732635,165.609772 94.698624,166.461746 105.655525,166.357529 
	C122.760818,166.194839 139.859955,165.384109 157.762558,164.948975 
	C158.832870,164.867126 159.903168,164.785278 161.815994,164.894455 
	C169.244644,164.046967 176.940598,163.880646 182.584320,156.629669 
	C188.862640,146.897049 188.169800,135.821579 188.793716,124.049652 
	C188.735138,115.402779 188.676559,106.755898 188.793274,97.258369 
	C187.472946,89.844482 186.152634,82.430588 184.822983,74.439072 
	C184.536819,73.967262 184.250641,73.495461 183.868790,72.387909 
	C182.811111,71.117325 181.753448,69.846741 180.619629,68.375969 
	C180.619629,68.375969 180.418335,68.302773 180.291138,67.926697 
	C180.131500,67.684921 179.906815,67.563904 179.541367,67.379623 
	C179.541367,67.379623 179.343521,67.358124 178.986557,66.823776 
	C175.982040,65.644966 172.977539,64.466156 169.319382,63.140411 
	C168.873749,63.133999 168.428131,63.127586 167.242432,62.799557 
	C161.450119,62.352093 155.657822,61.904625 148.959244,61.294178 
	C143.307678,61.244690 137.656097,61.195206 131.228531,60.891113 
	C117.826759,60.983658 104.424995,61.076206 90.105957,61.076244 
	C86.438293,61.157326 82.770622,61.238407 78.411446,61.132286 
	C77.941078,61.193321 77.470718,61.254356 76.196632,61.215324 
z"/>
<path fill="#FD0002" opacity="1.000000" stroke="none" 
	d="
M132.004532,61.145721 
	C137.656097,61.195206 143.307678,61.244690 149.651367,61.640450 
	C156.223160,62.364868 162.102829,62.743023 167.982498,63.121174 
	C168.428131,63.127586 168.873749,63.133999 169.859573,63.467659 
	C173.381012,64.982643 176.362274,66.170387 179.343521,67.358124 
	C179.343521,67.358124 179.541367,67.379623 179.625275,67.671173 
	C179.876938,68.219055 180.113312,68.332405 180.418335,68.302773 
	C180.418335,68.302773 180.619629,68.375969 180.481323,68.764915 
	C179.989136,70.149681 179.635254,71.145500 179.180084,72.426392 
	C181.067917,72.662064 182.516190,72.842857 183.964462,73.023651 
	C184.250641,73.495461 184.536819,73.967262 184.712921,75.032730 
	C185.142334,80.508484 185.513519,85.417480 186.287933,90.262016 
	C186.714981,92.933571 187.819092,95.496902 188.617981,98.109024 
	C188.676559,106.755898 188.735138,115.402779 188.553162,124.837227 
	C187.605698,129.682632 187.033447,133.769684 186.160400,137.791443 
	C184.847061,143.841263 183.323196,149.845413 181.576965,155.896484 
	C180.345856,156.165894 178.821060,156.158386 178.602585,156.688873 
	C176.751770,161.182968 172.430466,161.022202 168.805206,162.181686 
	C166.193008,163.017166 163.583954,163.862503 160.973480,164.703430 
	C159.903168,164.785278 158.832870,164.867126 156.996765,164.717865 
	C155.249176,164.335007 154.267532,164.051849 153.285553,164.050690 
	C127.648346,164.020386 102.011093,164.005554 76.373947,164.049454 
	C74.921440,164.051941 73.469841,164.577621 72.017815,164.859787 
	C69.660431,164.832489 67.303040,164.805191 64.327049,164.409470 
	C62.385044,163.419846 61.076084,162.305359 59.735657,162.266144 
	C54.921711,162.125259 51.123764,160.368515 48.023609,156.634598 
	C47.043053,155.453583 45.209583,154.980713 43.766441,154.183762 
	C43.766441,154.183762 43.819134,154.238922 43.780632,153.910126 
	C43.420963,153.048462 43.099796,152.515594 42.778633,151.982712 
	C42.613804,151.641068 42.448975,151.299438 42.289043,150.276184 
	C41.639156,146.722260 40.984375,143.849930 40.329590,140.977600 
	C40.259651,140.539520 40.189713,140.101456 40.291222,139.045105 
	C40.101913,136.603470 39.741154,134.780106 39.380394,132.956757 
	C39.298237,131.248444 39.216080,129.540115 39.355492,127.035187 
	C40.362007,112.182808 41.000271,98.116638 41.997814,84.075989 
	C42.452335,77.678497 43.674740,71.675468 51.283283,69.205070 
	C56.121170,67.634262 60.518162,64.705544 65.112862,62.385742 
	C66.275383,62.307907 67.437912,62.230064 69.105583,62.182220 
	C69.610733,62.212215 69.602722,62.073986 69.855759,62.265388 
	C70.713272,62.611599 71.317749,62.766403 72.344383,62.939529 
	C74.173462,63.003345 75.580383,63.048847 77.277084,63.025990 
	C78.078896,62.411583 78.590927,61.865536 79.102959,61.319492 
	C82.770622,61.238407 86.438293,61.157326 90.931488,61.302429 
	C101.223137,61.662251 110.689262,61.886707 120.155365,61.886150 
	C124.105103,61.885918 128.054810,61.406990 132.004532,61.145721 
M136.999771,112.004105 
	C136.999771,112.004105 136.892975,112.108688 136.716949,111.457207 
	C130.584198,104.691132 121.865997,102.329979 114.153969,98.259476 
	C113.797821,98.071495 113.192383,98.355827 112.826195,98.090073 
	C112.826195,98.090073 112.680099,98.411606 112.574997,97.683510 
	C112.102646,95.969032 111.630287,94.254555 111.335625,93.185013 
	C108.805260,92.299698 106.955917,91.410385 105.008377,91.046135 
	C103.382393,90.742027 101.641388,91.052917 99.320915,91.092239 
	C98.901031,91.096878 98.481148,91.101517 97.512611,91.062172 
	C97.044289,92.196526 96.177582,93.327820 96.168808,94.465714 
	C96.073196,106.874374 96.051018,119.284782 96.197136,131.692505 
	C96.213860,133.112747 97.376076,134.519501 98.069214,135.926910 
	C98.069214,135.926910 98.065994,135.989120 98.361839,136.502090 
	C99.549889,136.523712 100.972412,136.986008 101.889366,136.498123 
	C110.138863,132.108780 118.335060,127.614471 126.441620,122.967339 
	C127.457718,122.384857 127.863274,120.737335 128.565704,119.514656 
	C128.565704,119.514656 128.635010,119.524849 129.392593,119.634895 
	C131.915939,118.587440 134.581818,117.783562 136.918060,116.416405 
	C138.828995,115.298126 139.817047,113.517097 136.999771,112.004105 
z"/>
<path fill="#D70D10" opacity="1.000000" stroke="none" 
	d="
M72.394272,165.023132 
	C73.469841,164.577621 74.921440,164.051941 76.373947,164.049454 
	C102.011093,164.005554 127.648346,164.020386 153.285553,164.050690 
	C154.267532,164.051849 155.249176,164.335007 156.596344,164.667358 
	C139.859955,165.384109 122.760818,166.194839 105.655525,166.357529 
	C94.698624,166.461746 83.732635,165.609772 72.394272,165.023132 
z"/>
<path fill="#CD1216" opacity="1.000000" stroke="none" 
	d="
M64.688477,62.297287 
	C60.518162,64.705544 56.121170,67.634262 51.283283,69.205070 
	C43.674740,71.675468 42.452335,77.678497 41.997814,84.075989 
	C41.000271,98.116638 40.362007,112.182808 39.402107,126.609451 
	C37.442387,110.506088 38.436604,94.114014 41.267372,77.863228 
	C42.709568,69.583916 49.007534,64.219315 57.334682,62.996666 
	C59.633488,62.659134 61.953705,62.467442 64.688477,62.297287 
z"/>
<path fill="#C51216" opacity="1.000000" stroke="none" 
	d="
M131.616531,61.018417 
	C128.054810,61.406990 124.105103,61.885918 120.155365,61.886150 
	C110.689262,61.886707 101.223137,61.662251 91.390121,61.348682 
	C104.424995,61.076206 117.826759,60.983658 131.616531,61.018417 
z"/>
<path fill="#C51216" opacity="1.000000" stroke="none" 
	d="
M181.888840,155.868973 
	C183.323196,149.845413 184.847061,143.841263 186.160400,137.791443 
	C187.033447,133.769684 187.605698,129.682632 188.497009,125.301453 
	C188.169800,135.821579 188.862640,146.897049 182.260406,156.526459 
	C181.920624,156.238480 181.904724,156.053726 181.888840,155.868973 
z"/>
<path fill="#D70D10" opacity="1.000000" stroke="none" 
	d="
M43.833115,154.523132 
	C45.209583,154.980713 47.043053,155.453583 48.023609,156.634598 
	C51.123764,160.368515 54.921711,162.125259 59.735657,162.266144 
	C61.076084,162.305359 62.385044,163.419846 63.892078,164.334808 
	C56.066341,164.025970 48.386272,162.743073 43.833115,154.523132 
z"/>
<path fill="#D70D10" opacity="1.000000" stroke="none" 
	d="
M181.576965,155.896484 
	C181.904724,156.053726 181.920624,156.238480 181.964539,156.699982 
	C176.940598,163.880646 169.244644,164.046967 161.394745,164.798950 
	C163.583954,163.862503 166.193008,163.017166 168.805206,162.181686 
	C172.430466,161.022202 176.751770,161.182968 178.602585,156.688873 
	C178.821060,156.158386 180.345856,156.165894 181.576965,155.896484 
z"/>
<path fill="#C51216" opacity="1.000000" stroke="none" 
	d="
M188.705627,97.683701 
	C187.819092,95.496902 186.714981,92.933571 186.287933,90.262016 
	C185.513519,85.417480 185.142334,80.508484 184.717575,75.321548 
	C186.152634,82.430588 187.472946,89.844482 188.705627,97.683701 
z"/>
<path fill="#C51216" opacity="1.000000" stroke="none" 
	d="
M167.612457,62.960365 
	C162.102829,62.743023 156.223160,62.364868 150.104492,61.721939 
	C155.657822,61.904625 161.450119,62.352093 167.612457,62.960365 
z"/>
<path fill="#C51216" opacity="1.000000" stroke="none" 
	d="
M179.165039,67.090958 
	C176.362274,66.170387 173.381012,64.982643 170.186401,63.541130 
	C172.977539,64.466156 175.982040,65.644966 179.165039,67.090958 
z"/>
<path fill="#C51216" opacity="1.000000" stroke="none" 
	d="
M183.916626,72.705780 
	C182.516190,72.842857 181.067917,72.662064 179.180084,72.426392 
	C179.635254,71.145500 179.989136,70.149681 180.519394,68.865005 
	C181.753448,69.846741 182.811111,71.117325 183.916626,72.705780 
z"/>
<path fill="#CD1216" opacity="1.000000" stroke="none" 
	d="
M40.243217,141.374313 
	C40.984375,143.849930 41.639156,146.722260 42.269386,149.989227 
	C41.548836,147.512909 40.852837,144.641968 40.243217,141.374313 
z"/>
<path fill="#CD1216" opacity="1.000000" stroke="none" 
	d="
M76.987289,63.094349 
	C75.580383,63.048847 74.173462,63.003345 72.076210,62.788002 
	C70.791489,62.436768 70.197105,62.255379 69.602722,62.073986 
	C69.602722,62.073986 69.610733,62.212215 69.541962,62.218636 
	C71.714340,61.888474 73.955482,61.551899 76.589142,61.561474 
	C76.983536,62.303200 76.985413,62.698772 76.987289,63.094349 
z"/>
<path fill="#CD1216" opacity="1.000000" stroke="none" 
	d="
M39.286217,133.339081 
	C39.741154,134.780106 40.101913,136.603470 40.315491,138.712158 
	C39.842888,137.238800 39.517464,135.480103 39.286217,133.339081 
z"/>
<path fill="#C51216" opacity="1.000000" stroke="none" 
	d="
M77.277077,63.025990 
	C76.985413,62.698772 76.983536,62.303200 76.990997,61.611507 
	C77.470718,61.254356 77.941078,61.193321 78.757202,61.225891 
	C78.590927,61.865536 78.078896,62.411583 77.277077,63.025990 
z"/>
<path fill="#CD1216" opacity="1.000000" stroke="none" 
	d="
M42.746338,152.307373 
	C43.099796,152.515594 43.420963,153.048462 43.743843,153.899841 
	C43.401718,153.689560 43.057880,153.160812 42.746338,152.307373 
z"/>
<path fill="#C51216" opacity="1.000000" stroke="none" 
	d="
M180.354736,68.114731 
	C180.113312,68.332405 179.876938,68.219055 179.663147,67.763184 
	C179.906815,67.563904 180.131500,67.684921 180.354736,68.114731 
z"/>
<path fill="#15294E" opacity="1.000000" stroke="none" 
	d="
M98.061264,91.106148 
	C98.481148,91.101517 98.901031,91.096878 99.846619,91.356216 
	C104.474922,93.883995 108.577507,96.147797 112.680099,98.411606 
	C112.680099,98.411606 112.826195,98.090073 112.991394,98.496689 
	C121.068718,103.305107 128.980850,107.706894 136.892975,112.108688 
	C136.892975,112.108688 136.999771,112.004105 136.994019,112.418526 
	C134.203842,115.063576 131.419418,117.294212 128.635010,119.524841 
	C128.635010,119.524849 128.565704,119.514656 128.221024,119.631241 
	C117.939560,125.161591 108.002777,130.575363 98.065994,135.989120 
	C98.065994,135.989120 98.069214,135.926910 98.038849,135.466705 
	C98.026077,120.373039 98.043671,105.739594 98.061264,91.106148 
z"/>
<path fill="#D10E11" opacity="1.000000" stroke="none" 
	d="
M97.786942,91.084160 
	C98.043671,105.739594 98.026077,120.373039 98.007828,135.469498 
	C97.376076,134.519501 96.213860,133.112747 96.197136,131.692505 
	C96.051018,119.284782 96.073196,106.874374 96.168808,94.465714 
	C96.177582,93.327820 97.044289,92.196526 97.786942,91.084160 
z"/>
<path fill="#D10E11" opacity="1.000000" stroke="none" 
	d="
M98.213913,136.245605 
	C108.002777,130.575363 117.939560,125.161591 128.214020,119.665558 
	C127.863274,120.737335 127.457718,122.384857 126.441620,122.967339 
	C118.335060,127.614471 110.138863,132.108780 101.889366,136.498123 
	C100.972412,136.986008 99.549889,136.523712 98.213913,136.245605 
z"/>
<path fill="#D10E11" opacity="1.000000" stroke="none" 
	d="
M136.804962,111.782944 
	C128.980850,107.706894 121.068718,103.305107 112.929817,98.661743 
	C113.192383,98.355827 113.797821,98.071495 114.153969,98.259476 
	C121.865997,102.329979 130.584198,104.691132 136.804962,111.782944 
z"/>
<path fill="#D10E11" opacity="1.000000" stroke="none" 
	d="
M112.627548,98.047562 
	C108.577507,96.147797 104.474922,93.883995 100.161819,91.355820 
	C101.641388,91.052917 103.382393,90.742027 105.008377,91.046135 
	C106.955917,91.410385 108.805260,92.299698 111.335625,93.185013 
	C111.630287,94.254555 112.102646,95.969032 112.627548,98.047562 
z"/>
<path fill="#D10E11" opacity="1.000000" stroke="none" 
	d="
M129.013794,119.579865 
	C131.419418,117.294212 134.203842,115.063576 136.938370,112.467941 
	C139.817047,113.517097 138.828995,115.298126 136.918060,116.416405 
	C134.581818,117.783562 131.915939,118.587440 129.013794,119.579865 
z"/>
<path fill="#C51216" opacity="1.000000" stroke="none" 
	d="
M69.855759,62.265388 
	C70.197105,62.255379 70.791489,62.436768 71.654045,62.769684 
	C71.317749,62.766403 70.713272,62.611599 69.855759,62.265388 
z"/>
</svg>